<svg xmlns="http://www.w3.org/2000/svg" version="1.1" xmlns:xlink="http://www.w3.org/1999/xlink" xmlns:svgjs="http://svgjs.com/svgjs" width="4983" height="1334"><svg width="4983" height="1334" viewBox="0 0 4983 1334" fill="none" xmlns="http://www.w3.org/2000/svg">
<path d="M1808.71 540.697C1747.5 595.119 1693.88 657.593 1636.77 716.757L1636.62 716.911L1620.16 733.344V711.693C1620.16 643.816 1621.73 576.118 1619.53 508.425C1618.41 474.888 1613.97 440.554 1604.51 408.616C1568.9 287.132 1434.14 228.746 1296.37 276.517C1163.33 322.553 1090.08 421.745 1069.99 557.308C1057.03 646.2 1052.27 737.005 1050.7 826.854C1047.86 994.368 1049.91 1162.04 1049.91 1332.4H811.85V957.663C810.097 807.711 808.991 662.49 806.003 517.454C805.187 485.491 800.303 453.065 792.071 422.226C756.793 288.713 621.396 225.288 480.306 277.641C321.789 336.651 253.764 463.205 247.286 621.69C238.122 842.366 239.709 1063.33 236.844 1284.15C236.689 1299.82 236.844 1315.62 236.844 1333.36H0.0507812V59.0278H235.905V181.926C354.388 66.6294 487.574 16.1721 640.545 28.3495C794.937 40.6875 914.506 111.875 988.534 255.497C1016.69 224.812 1040.91 195.227 1068.26 168.964C1239.1 5.10002 1502 -21.6508 1678.84 106.805C1781.19 181.148 1828.17 287.132 1853.8 407.659C1865.99 464.921 1851.9 502.256 1808.72 540.703L1808.71 540.697Z" fill="#373435"></path>
<path d="M2173.22 319.935C2279.55 208.313 2388.6 105.595 2538.99 63.9933C2817.64 -13.1222 3073.87 20.2917 3292.63 224.708C3313.59 244.296 3330.45 268.632 3347.39 292.073C3362.3 312.735 3374.7 335.213 3390.42 360.432C3326.21 400.497 3264.28 439.141 3199.92 479.286C3189.25 466.188 3179.8 455.69 3171.54 444.328C3004.87 214.519 2632.63 197.451 2451.84 378.884C2264.01 567.393 2073.54 753.29 1885.57 941.67C1874.22 953.014 1870.6 976.14 1870.41 993.856C1869.07 1105.07 1869.73 1216.29 1869.73 1331.43H1624.61C1624.61 1220.12 1631.44 1107.03 1622.56 995.202C1614.85 898.116 1645.77 830.511 1717.13 764.924C1872.6 622.043 2020.03 470.387 2173.22 319.948L2173.22 319.935Z" fill="#373435"></path>
<path d="M4982.99 298.653L4945 330.313L4943.04 332.054L4868.59 394.059L4819.69 435.099C4807.9 424.842 4796.55 416.981 4787.38 406.94C4643.3 250.622 4467.12 193.428 4258.85 235.79C4166.72 254.556 4095.12 308.484 4030.72 372.891C3785.34 617.39 3536.69 859.055 3296.98 1109.02C3058.15 1357.68 2672.41 1378.84 2431.17 1262.27C2386.85 1240.88 2346.69 1211.19 2306.3 1180.19C2303.68 1178.22 2301.06 1176.25 2298.44 1174.29C2292.76 1169.93 2287.08 1165.34 2281.19 1160.98C2280.54 1160.32 2279.67 1159.67 2278.8 1159.01C2270.5 1152.46 2262.64 1145.7 2255.21 1138.93C2242.33 1127.8 2230.77 1116.66 2220.5 1106.4C2199.11 1085 2183.38 1067.1 2176.4 1058.58C2173.78 1055.52 2172.26 1053.78 2172.26 1053.78C2129.47 998.762 2098.47 936.547 2077.95 868.435C2074.02 855.115 2079.04 832.854 2088.21 822.813C2150.65 755.578 2215.27 690.3 2285.79 618.038C2291.47 669.78 2291.89 710.827 2300.85 749.897C2351.28 968.43 2531.6 1100.5 2765.84 1099.85C2894 1099.41 3000.31 1054.66 3090.69 965.151C3341.52 716.495 3594.54 469.804 3844.07 220.061C3945.16 118.986 4060.64 47.6014 4202.32 13.7676C4202.32 13.7676 4202.98 13.5453 4203.63 13.323C4204.72 13.323 4206.03 12.6685 4207.35 12.4585C4208.87 12.0201 4210.39 11.7978 4211.49 11.5816H4211.71C4224.81 9.61793 4256.46 5.03596 4300.56 2.40534H4301.22C4320.13 1.17031 4341.43 0.398379 4364.56 0.361328H4368.79C4389.31 0.398379 4411.22 1.02211 4434.16 2.40534C4490.71 5.69671 4553.8 14.1999 4618.42 31.0087C4638.29 36.0291 4658.59 41.9264 4678.68 49.1328C4686.75 51.7511 4694.84 54.5916 4702.68 57.6484C4703.12 57.6484 4703.35 57.8645 4703.56 58.0744C4708.8 59.8282 4713.82 62.008 4718.84 64.1941C4724.96 66.5962 4731.07 68.9922 4737.19 71.8327C4744.82 75.1117 4752.46 78.6069 4760.11 82.312C4760.53 82.5343 4760.97 82.7504 4761.42 82.9727C4762.06 83.3988 4762.51 83.6273 4762.95 83.8373C4856.6 131.429 4926.68 206.315 4983 298.653H4982.99Z" fill="#373435"></path>
<path d="M4982.98 1002.83C4880.95 1172.72 4733.37 1270.78 4545.3 1311.46C4507.65 1319.52 4468.89 1323.15 4426.19 1329.16C4191.44 1341.04 3988.66 1279.8 3828.42 1105.81C3765.45 1037.48 3717.52 959.954 3691.42 870.273C3687.63 857.459 3688.11 836.735 3695.86 828.362C3760.23 758.916 3826.82 691.52 3901.48 614.324C3906.24 853.816 4004.94 1017.22 4226.55 1079.07C4454.66 1142.5 4645.26 1072.27 4790.96 876.281C4855.16 918.673 4917.65 959.806 4982.99 1002.83L4982.98 1002.83Z" fill="#00E900"></path>
</svg><style>@media (prefers-color-scheme: light) { :root { filter: none; } }
</style></svg>