<svg width="16" height="16" viewBox="0 0 16 16" fill="none" xmlns="http://www.w3.org/2000/svg">
<g clip-path="url(#clip0_1135_4638)">
<path fill-rule="evenodd" clip-rule="evenodd" d="M0.965773 14.8378C1.0106 14.905 1.05543 14.905 1.14508 14.9722C1.16749 14.7481 1.3468 14.636 1.50369 14.4791C1.63817 14.3671 1.75023 14.2326 1.90713 14.0757C2.06402 13.9188 2.17609 13.7171 2.40022 13.7843C2.5347 13.8292 2.5347 13.8964 2.714 13.8964C3.02779 13.874 2.93813 13.605 3.5657 14.2998C3.9019 14.6809 4.19327 14.7481 3.78984 15.0843C3.65536 15.1964 3.25192 14.9274 3.00537 15.4205L3.78984 15.5102L3.63294 15.4429C3.74501 15.3533 4.01397 15.1067 4.08121 15.0171C4.28293 14.7481 4.01397 14.5464 3.9019 14.4343C3.65536 14.1878 3.20709 13.6499 2.96055 13.6723C2.80365 13.6947 2.75883 13.7843 2.60194 13.7171C2.48987 13.6723 2.46746 13.605 2.26574 13.6275C2.06402 13.6499 1.90713 13.874 1.77265 13.9861L1.12266 14.636C1.07784 14.6809 1.0106 14.8154 0.943359 14.8378H0.965773Z" fill="#53D690" stroke="#53D690" stroke-width="0.291372" stroke-miterlimit="2.61313"/>
<path fill-rule="evenodd" clip-rule="evenodd" d="M12.083 4.68349L12.1502 4.75074C12.1502 4.75074 12.1502 4.77314 12.1727 4.77314C12.1727 4.77314 12.1951 4.79556 12.1951 4.81798L12.2175 4.86279C12.352 5.0421 13.0468 5.69209 13.1813 5.78174C13.114 5.58003 13.0244 5.40071 12.8899 5.24382L12.7554 5.08692C12.6882 4.99727 12.3296 4.63867 12.1951 4.63867C12.1054 4.63867 12.1278 4.63866 12.083 4.68349Z" fill="#53D690" stroke="#53D690" stroke-width="0.291372" stroke-miterlimit="2.61313"/>
<path d="M1.16406 13.0218C1.20914 12.7442 1.28666 12.4559 1.3834 12.1536L1.3843 12.1507C1.5324 11.6837 1.79022 11.2825 2.14578 10.921C2.74743 11.3577 3.4972 11.6103 4.23836 11.6103C4.85501 11.6103 5.53519 11.4268 6.04489 11.1024C6.134 11.0472 6.23052 10.9824 6.32971 10.9082C6.56941 11.1778 6.75892 11.4528 6.83092 11.5908L6.83695 11.6023L6.84325 11.6138C7.13923 12.1502 7.38956 12.9794 7.33892 13.5405C7.33245 13.557 7.29768 13.6258 7.15049 13.7359C6.95372 13.883 6.66946 14.0134 6.37882 14.1015L6.37091 14.1039C5.95939 14.232 5.59866 14.2977 5.20324 14.3341C5.17353 14.2517 5.13837 14.1773 5.10176 14.1118C4.97488 13.8848 4.75401 13.6711 4.71478 13.6374C4.60683 13.5179 4.4173 13.3084 4.22135 13.128C4.11053 13.026 3.96249 12.8999 3.79421 12.7954C3.67103 12.7188 3.32705 12.5158 2.88177 12.5563L2.84018 12.56L2.79899 12.5669C2.79699 12.5672 2.79499 12.5676 2.793 12.5679C2.71805 12.544 2.63644 12.5252 2.54772 12.5139C2.42498 12.4984 2.31165 12.5005 2.21393 12.5088C1.7146 12.5357 1.37664 12.8255 1.25858 12.9318C1.2243 12.9626 1.19251 12.9933 1.16406 13.0218Z" fill="#53D690"/>
<path d="M7.34021 13.5366L7.33974 13.5383M1.16406 13.0218C1.20914 12.7442 1.28666 12.4559 1.3834 12.1536L1.3843 12.1507C1.5324 11.6837 1.79022 11.2825 2.14578 10.921C2.74743 11.3577 3.4972 11.6103 4.23836 11.6103C4.85501 11.6103 5.53519 11.4268 6.04489 11.1024C6.134 11.0472 6.23052 10.9824 6.32971 10.9082C6.56941 11.1778 6.75892 11.4528 6.83092 11.5908L6.83695 11.6023L6.84325 11.6138C7.13923 12.1502 7.38956 12.9794 7.33892 13.5405C7.33245 13.557 7.29768 13.6258 7.15049 13.7359C6.95372 13.883 6.66946 14.0134 6.37882 14.1015L6.37091 14.1039C5.95939 14.232 5.59866 14.2977 5.20324 14.3341C5.17353 14.2517 5.13837 14.1773 5.10176 14.1118C4.97488 13.8848 4.75401 13.6711 4.71478 13.6374C4.60683 13.5179 4.4173 13.3084 4.22135 13.128C4.11053 13.026 3.96249 12.8999 3.79421 12.7954C3.67103 12.7188 3.32705 12.5158 2.88177 12.5563L2.84018 12.56L2.79899 12.5669C2.79699 12.5672 2.79499 12.5676 2.793 12.5679C2.71805 12.544 2.63644 12.5252 2.54772 12.5139C2.42498 12.4984 2.31165 12.5005 2.21393 12.5088C1.7146 12.5357 1.37664 12.8255 1.25858 12.9318C1.2243 12.9626 1.19251 12.9933 1.16406 13.0218Z" stroke="#53D690" stroke-width="2.24132"/>
<path d="M13.823 9.90736H8.83557C8.77867 9.81583 8.71513 9.72112 8.6377 9.61569C9.20475 9.61422 9.79803 9.60771 10.3957 9.60116C11.5165 9.58886 12.6526 9.5764 13.6595 9.59669L13.823 9.90736Z" fill="#53D690" stroke="#53D690" stroke-width="2.24132"/>
<path d="M12.1575 4.7292H12.15C12.1525 4.7292 12.155 4.7292 12.1575 4.7292ZM12.1575 4.7292L12.186 4.76344L12.1439 4.71289L12.15 4.72023L12.1575 4.7292ZM12.303 6.93981C12.3048 6.98004 12.3062 7.02019 12.3074 7.06017H12.2591C12.2738 7.01985 12.2885 6.97969 12.303 6.93981ZM9.12458 6.96653C9.13628 6.99783 9.14797 7.02906 9.15962 7.06017H9.12109C9.12202 7.02852 9.12317 6.99732 9.12458 6.96653Z" fill="#53D690"/>
<path d="M12.1575 4.7292H12.15C12.1525 4.7292 12.155 4.7292 12.1575 4.7292ZM12.1575 4.7292L12.186 4.76344L12.1439 4.71289L12.15 4.72023L12.1575 4.7292ZM12.303 6.93981C12.3048 6.98004 12.3062 7.02019 12.3074 7.06017H12.2591C12.2738 7.01985 12.2885 6.97969 12.303 6.93981ZM9.12458 6.96653C9.13628 6.99783 9.14797 7.02906 9.15962 7.06017H9.12109C9.12202 7.02852 9.12317 6.99732 9.12458 6.96653Z" stroke="#53D690" stroke-width="2.24132"/>
<path d="M3.44358 8.21043L3.44327 8.20812C3.3753 7.71296 3.68362 7.36332 4.02144 7.28468H4.02641L4.10525 7.27342C4.55763 7.20879 4.92323 7.46894 5.02104 7.94822C5.03968 8.04872 5.0341 8.16961 5.00071 8.29161C4.96548 8.42036 4.91345 8.49943 4.89295 8.52308L4.88081 8.53709L4.86914 8.55149C4.38696 9.14653 3.52621 8.82187 3.44358 8.21043Z" fill="#53D690" stroke="#53D690" stroke-width="2.24132"/>
<path d="M10.3703 2.99485C10.4334 2.91703 10.5204 2.86617 10.601 2.84659H10.6062L10.6754 2.83793C10.8069 2.8215 10.9019 2.85793 10.9753 2.91763C11.0565 2.98362 11.1124 3.08094 11.1295 3.17895C11.1408 3.28867 11.1088 3.39077 11.0387 3.47939C10.9607 3.57803 10.8581 3.63044 10.7787 3.6427C10.6171 3.66517 10.5238 3.62226 10.4613 3.57247C10.3845 3.51134 10.3187 3.40768 10.2958 3.28254C10.2764 3.16453 10.3073 3.07256 10.3703 2.99485Z" fill="#53D690" stroke="#53D690" stroke-width="2.24132"/>
<path fill-rule="evenodd" clip-rule="evenodd" d="M2.78141 0.358602H7.30888V4.81884C7.15199 4.70677 6.23305 3.60853 6.14339 3.47405H2.759V0.358602H2.78141ZM2.40039 3.85507C2.84865 3.85507 5.87444 3.81024 6.00891 3.89989L7.57784 5.76019C7.62267 5.80502 7.64508 5.82744 7.66749 5.87226L7.6899 0H2.40039V3.85507Z" fill="#53D690"/>
<mask id="mask0_1135_4638" style="mask-type:luminance" maskUnits="userSpaceOnUse" x="2" y="0" width="6" height="6">
<path fill-rule="evenodd" clip-rule="evenodd" d="M2.78141 0.358602H7.30888V4.81884C7.15199 4.70677 6.23305 3.60853 6.14339 3.47405H2.759V0.358602H2.78141ZM2.40039 3.85507C2.84865 3.85507 5.87444 3.81024 6.00891 3.89989L7.57784 5.76019C7.62267 5.80502 7.64508 5.82744 7.66749 5.87226L7.6899 0H2.40039V3.85507Z" fill="white"/>
</mask>
<g mask="url(#mask0_1135_4638)">
<path d="M7.30899 0.357734H9.55031V-1.88359H7.30899V0.357734ZM7.30899 4.81797L6.00625 6.64181L9.55031 9.17328V4.81797H7.30899ZM6.1435 3.47318L8.00839 2.22992L7.34302 1.23186H6.1435V3.47318ZM2.75911 3.47318H0.517791V5.7145H2.75911V3.47318ZM2.75911 0.357734V-1.88359H0.517791V0.357734H2.75911ZM2.4005 3.8542H0.15918V6.09552H2.4005V3.8542ZM6.00902 3.89902L7.72237 2.45404L7.51714 2.2107L7.25228 2.03413L6.00902 3.89902ZM7.57795 5.75932L5.86461 7.2043L5.92589 7.27696L5.9931 7.34417L7.57795 5.75932ZM7.6676 5.87139L5.6629 6.87374L9.9089 5.87995L7.6676 5.87139ZM7.69001 -0.000867605L9.93132 0.00768685L9.9399 -2.24219H7.69001V-0.000867605ZM2.4005 -0.000867605V-2.24219H0.15918V-0.000867605H2.4005ZM2.78152 2.59905H7.30899V-1.88359H2.78152V2.59905ZM5.06767 0.357734V4.81797H9.55031V0.357734H5.06767ZM8.61173 2.99413C8.71803 3.07006 8.78716 3.13514 8.79382 3.14131C8.81296 3.15902 8.82155 3.16804 8.81598 3.16238C8.80522 3.15143 8.77843 3.12327 8.73326 3.07348C8.64499 2.97618 8.5289 2.84318 8.40607 2.69922C8.28468 2.55694 8.16631 2.41523 8.07562 2.30445C8.02989 2.2486 7.99525 2.20555 7.97261 2.17685C7.96111 2.16228 7.95658 2.1563 7.95714 2.15704C7.95753 2.15755 7.96163 2.16298 7.96825 2.1721C7.97354 2.17938 7.98869 2.20037 8.00839 2.22992L4.27861 4.71644C4.41586 4.92231 4.77828 5.35358 4.99599 5.60875C5.13371 5.77017 5.28238 5.94114 5.41334 6.08548C5.47779 6.15652 5.54923 6.23359 5.6191 6.30468C5.64757 6.33363 5.80595 6.49874 6.00625 6.64181L8.61173 2.99413ZM6.1435 1.23186H2.75911V5.7145H6.1435V1.23186ZM5.00043 3.47318V0.357734H0.517791V3.47318H5.00043ZM2.75911 2.59905H2.78152V-1.88359H2.75911V2.59905ZM2.4005 6.09552C2.52453 6.09552 2.81764 6.09254 3.15254 6.08985C3.49945 6.08706 3.91684 6.08431 4.32244 6.08431C4.73224 6.08431 5.11246 6.08714 5.39067 6.09469C5.53393 6.09858 5.62186 6.10303 5.6634 6.10619C5.68845 6.1081 5.66205 6.107 5.608 6.09862C5.58283 6.09472 5.51198 6.0833 5.41847 6.05873C5.38437 6.04977 5.08714 5.97816 4.76576 5.76391L7.25228 2.03413C6.9225 1.81428 6.61122 1.73733 6.55776 1.72328C6.44488 1.69362 6.34935 1.67736 6.29452 1.66887C6.18116 1.6513 6.07552 1.64196 6.00409 1.63652C5.85267 1.62498 5.67865 1.61822 5.51232 1.6137C5.17137 1.60445 4.74191 1.60167 4.32243 1.60167C3.89874 1.60167 3.46722 1.60453 3.11653 1.60735C2.75381 1.61026 2.5006 1.61288 2.4005 1.61288V6.09552ZM4.29568 5.344L5.86461 7.2043L9.29129 4.31434L7.72237 2.45404L4.29568 5.344ZM5.9931 7.34417C6.00846 7.35954 6.00157 7.35276 5.99204 7.34286C5.98002 7.33036 5.9484 7.29708 5.90928 7.25013C5.8675 7.19999 5.8211 7.13908 5.77448 7.06777C5.72821 6.997 5.69152 6.93097 5.6629 6.87374L9.6723 4.86905C9.46776 4.45997 9.19543 4.20709 9.1628 4.17447L5.9931 7.34417ZM9.9089 5.87995L9.93132 0.00768685L5.44871 -0.00942206L5.4263 5.86284L9.9089 5.87995ZM7.69001 -2.24219H2.4005V2.24045H7.69001V-2.24219ZM0.15918 -0.000867605V3.8542H4.64182V-0.000867605H0.15918Z" fill="#53D690"/>
</g>
<path fill-rule="evenodd" clip-rule="evenodd" d="M1.16699 14.9727C1.39112 15.0175 1.57043 15.1968 1.81697 15.1744C1.90663 15.0399 1.77215 14.8382 1.99628 14.6141C2.31006 14.3003 2.84798 14.4572 2.93763 14.8606C3.00487 15.1072 2.89281 15.1968 2.87039 15.3089C2.82557 15.4434 2.82557 15.3537 2.87039 15.421H3.0497C3.29624 14.9279 3.69968 15.1968 3.83416 15.0848C4.2376 14.7486 3.94623 14.6813 3.61003 14.3003C2.98246 13.6055 3.07211 13.8745 2.75833 13.8969C2.57902 13.8969 2.57902 13.8296 2.44454 13.7848C2.22041 13.7176 2.10834 13.9193 1.95145 14.0762C1.79456 14.2331 1.66008 14.3676 1.54801 14.4796C1.39112 14.6141 1.21182 14.7262 1.1894 14.9727H1.16699Z" fill="#53D690" stroke="#53D690" stroke-width="0.291372" stroke-miterlimit="2.61313"/>
<path fill-rule="evenodd" clip-rule="evenodd" d="M10.7155 7.53112C10.7827 7.28458 11.1413 6.61217 11.0741 6.36563L10.8275 5.44669C10.7603 5.20015 10.8051 5.17773 10.693 5.17773C10.5586 5.17773 10.5137 5.62599 10.4689 5.73806C10.4241 5.93978 10.3569 6.16391 10.312 6.36563C10.2672 6.56734 10.5137 7.12769 10.6258 7.39665C10.6258 7.41906 10.6482 7.44147 10.6482 7.46388L10.693 7.55354L10.7155 7.53112Z" fill="#53D690"/>
<mask id="mask1_1135_4638" style="mask-type:luminance" maskUnits="userSpaceOnUse" x="10" y="5" width="2" height="3">
<path fill-rule="evenodd" clip-rule="evenodd" d="M10.7155 7.53112C10.7827 7.28458 11.1413 6.61217 11.0741 6.36563L10.8275 5.44669C10.7603 5.20015 10.8051 5.17773 10.693 5.17773C10.5586 5.17773 10.5137 5.62599 10.4689 5.73806C10.4241 5.93978 10.3569 6.16391 10.312 6.36563C10.2672 6.56734 10.5137 7.12769 10.6258 7.39665C10.6258 7.41906 10.6482 7.44147 10.6482 7.46388L10.693 7.55354L10.7155 7.53112Z" fill="white"/>
</mask>
<g mask="url(#mask1_1135_4638)">
<path d="M10.7152 7.53026L12.3002 9.11496L12.7209 8.69412L12.8775 8.11999L10.7152 7.53026ZM11.0738 6.36477L8.90896 6.94557L8.9114 6.9545L11.0738 6.36477ZM10.8272 5.44583L12.992 4.86503L12.9896 4.8561L10.8272 5.44583ZM10.4686 5.7372L8.38757 4.90479L8.32007 5.07356L8.28064 5.25099L10.4686 5.7372ZM10.6255 7.39579H12.8668V6.94752L12.6944 6.53374L10.6255 7.39579ZM10.6479 7.46302H8.40657V7.99212L8.64319 8.46535L10.6479 7.46302ZM10.6927 7.55268L8.68801 8.55501L10.0789 11.3367L12.2778 9.13738L10.6927 7.55268ZM12.8775 8.11999C12.8502 8.22009 12.8259 8.26673 12.88 8.13578C12.9092 8.06531 12.977 7.90537 13.0329 7.76232C13.0886 7.61942 13.1707 7.39871 13.2308 7.15628C13.2615 7.03292 13.2976 6.8604 13.3142 6.65974C13.3294 6.47468 13.3386 6.15076 13.2361 5.77504L8.9114 6.9545C8.86622 6.78885 8.84969 6.64639 8.84381 6.54266C8.83786 6.43779 8.84167 6.35179 8.84666 6.29129C8.85621 6.17556 8.87484 6.09795 8.88025 6.07615C8.88692 6.04928 8.89037 6.04112 8.88494 6.05713C8.88003 6.07161 8.87126 6.09592 8.8569 6.13271C8.84266 6.16921 8.82591 6.2104 8.80533 6.26004C8.79507 6.2848 8.78474 6.30955 8.77331 6.33694C8.7623 6.3633 8.75003 6.39271 8.73797 6.42185C8.71483 6.47777 8.68528 6.55002 8.65702 6.62449C8.6425 6.66278 8.6259 6.70798 8.6091 6.75734C8.59272 6.80549 8.57247 6.86836 8.55279 6.94053L12.8775 8.11999ZM13.2385 5.78397L12.992 4.86503L8.66244 6.02663L8.90896 6.94557L13.2385 5.78397ZM12.9896 4.8561C12.9929 4.86828 12.9955 4.88114 12.9953 4.88043C12.9947 4.87723 12.9939 4.87531 12.992 4.86503C12.9906 4.85776 12.9877 4.83928 12.9839 4.81978C12.9787 4.79333 12.958 4.6866 12.919 4.55978C12.8803 4.43392 12.7904 4.17428 12.5917 3.89562C12.3663 3.57963 12.0633 3.32501 11.7087 3.15755C11.395 3.00938 11.119 2.96701 10.9811 2.95133C10.8419 2.93552 10.7281 2.93555 10.6927 2.93555V7.41819C10.6854 7.41819 10.5947 7.41892 10.4748 7.4053C10.3562 7.39181 10.0956 7.35311 9.79442 7.2109C9.45244 7.04939 9.15924 6.803 8.94196 6.49831C8.75129 6.23094 8.66768 5.98566 8.63455 5.87801C8.61592 5.81743 8.60397 5.76871 8.59747 5.74068C8.59086 5.71222 8.58671 5.69128 8.58548 5.685C8.58427 5.67885 8.58367 5.67551 8.58525 5.68401C8.58627 5.6895 8.58895 5.70397 8.59184 5.71917C8.60572 5.792 8.62791 5.90011 8.66485 6.03556L12.9896 4.8561ZM10.6927 2.93555C9.99846 2.93555 9.47746 3.23947 9.16599 3.51345C8.87955 3.76541 8.71747 4.0323 8.63842 4.17761C8.48215 4.46488 8.40817 4.73709 8.38139 4.83751C8.34794 4.96297 8.32075 5.09274 8.3138 5.12459C8.28465 5.2582 8.3133 5.09048 8.38757 4.90479L12.5496 6.5696C12.6135 6.40992 12.6485 6.27042 12.6593 6.22747C12.6746 6.16664 12.6871 6.10899 12.6934 6.08014C12.7022 6.04009 12.7052 6.02576 12.7099 6.00517C12.7137 5.98816 12.7144 5.98605 12.7127 5.99251C12.7114 5.99757 12.7035 6.02704 12.6877 6.0716C12.6738 6.11108 12.6394 6.20337 12.5761 6.31971C12.5209 6.42124 12.3847 6.65224 12.1267 6.87925C11.8436 7.12828 11.3534 7.41819 10.6927 7.41819V2.93555ZM8.28064 5.25099C8.26934 5.30186 8.253 5.36515 8.22262 5.48058C8.19696 5.57807 8.15727 5.72771 8.12375 5.87856L12.4997 6.85098C12.511 6.80011 12.5273 6.73682 12.5577 6.62139C12.5833 6.52389 12.623 6.37426 12.6566 6.22341L8.28064 5.25099ZM8.12375 5.87856C7.99956 6.43741 8.108 6.92141 8.13621 7.05075C8.18285 7.26458 8.24649 7.45982 8.29566 7.59945C8.3927 7.87505 8.51736 8.16373 8.55657 8.25783L12.6944 6.53374C12.6565 6.4428 12.6328 6.38782 12.598 6.30248C12.5665 6.22548 12.5418 6.16151 12.5239 6.11068C12.5152 6.08613 12.5105 6.07107 12.5085 6.06451C12.5062 6.05669 12.51 6.06826 12.5159 6.09553C12.521 6.1187 12.5351 6.18681 12.5426 6.28618C12.5465 6.33787 12.5497 6.41056 12.546 6.49904C12.5425 6.58602 12.5316 6.70752 12.4997 6.85098L8.12375 5.87856ZM8.38416 7.39579C8.38416 7.58551 8.40788 7.75049 8.4369 7.88318C8.46565 8.01459 8.50139 8.1223 8.53039 8.19962C8.55926 8.27662 8.58672 8.33724 8.60318 8.37236C8.61176 8.39067 8.61905 8.40561 8.62369 8.41503C8.628 8.42379 8.63185 8.43148 8.63202 8.43182C8.63325 8.43429 8.6308 8.42939 8.62787 8.42344C8.62461 8.41681 8.61868 8.40468 8.61141 8.38917C8.59757 8.35965 8.57257 8.30464 8.5458 8.23324C8.5189 8.16152 8.48491 8.05942 8.45739 7.93361C8.42959 7.80652 8.40657 7.64714 8.40657 7.46302H12.8892C12.8892 7.27331 12.8655 7.10832 12.8365 6.97563C12.8078 6.84422 12.772 6.73652 12.743 6.65919C12.7141 6.58219 12.6867 6.52157 12.6702 6.48646C12.6616 6.46814 12.6544 6.45321 12.6497 6.44378C12.6454 6.43502 12.6415 6.42733 12.6414 6.42699C12.6401 6.42453 12.6426 6.42942 12.6455 6.43538C12.6488 6.442 12.6547 6.45413 12.662 6.46965C12.6758 6.49916 12.7008 6.55417 12.7276 6.62557C12.7545 6.6973 12.7885 6.79939 12.816 6.92521C12.8438 7.05229 12.8668 7.21167 12.8668 7.39579H8.38416ZM8.64319 8.46535L8.68801 8.55501L12.6975 6.55035L12.6526 6.4607L8.64319 8.46535ZM12.2778 9.13738L12.3002 9.11496L9.13013 5.94556L9.10772 5.96798L12.2778 9.13738Z" fill="#53D690"/>
</g>
<path fill-rule="evenodd" clip-rule="evenodd" d="M3.56641 1.68089H6.36806L6.39047 1.32227H3.56641V1.68089Z" fill="#53D690"/>
<mask id="mask2_1135_4638" style="mask-type:luminance" maskUnits="userSpaceOnUse" x="3" y="1" width="4" height="1">
<path fill-rule="evenodd" clip-rule="evenodd" d="M3.56641 1.68089H6.36806L6.39047 1.32227H3.56641V1.68089Z" fill="white"/>
</mask>
<g mask="url(#mask2_1135_4638)">
<path d="M3.56652 1.68002H1.3252V3.92134H3.56652V1.68002ZM6.36817 1.68002V3.92134H8.47377L8.60511 1.81982L6.36817 1.68002ZM6.39058 1.3214L8.62753 1.4612L8.77635 -0.919922H6.39058V1.3214ZM3.56652 1.3214V-0.919922H1.3252V1.3214H3.56652ZM3.56652 3.92134H6.36817V-0.561303H3.56652V3.92134ZM8.60511 1.81982L8.62753 1.4612L4.15362 1.18159L4.13121 1.54021L8.60511 1.81982ZM6.39058 -0.919922H3.56652V3.56272H6.39058V-0.919922ZM1.3252 1.3214V1.68002H5.80784V1.3214H1.3252Z" fill="#53D690"/>
</g>
<path fill-rule="evenodd" clip-rule="evenodd" d="M3.54395 2.6008H6.39042L6.36801 2.24219H3.56636L3.54395 2.6008Z" fill="#53D690"/>
<mask id="mask3_1135_4638" style="mask-type:luminance" maskUnits="userSpaceOnUse" x="3" y="2" width="4" height="1">
<path fill-rule="evenodd" clip-rule="evenodd" d="M3.54395 2.6008H6.39042L6.36801 2.24219H3.56636L3.54395 2.6008Z" fill="white"/>
</mask>
<g mask="url(#mask3_1135_4638)">
<path d="M3.54399 2.59993L1.30703 2.46011L1.1582 4.84124H3.54399V2.59993ZM6.39046 2.59993V4.84124H8.77624L8.62742 2.46012L6.39046 2.59993ZM6.36805 2.24132L8.60501 2.10151L8.47366 0H6.36805V2.24132ZM3.5664 2.24132V0H1.4608L1.32945 2.10151L3.5664 2.24132ZM3.54399 4.84124H6.39046V0.358603H3.54399V4.84124ZM8.62742 2.46012L8.60501 2.10151L4.1311 2.38113L4.15351 2.73973L8.62742 2.46012ZM6.36805 0H3.5664V4.48264H6.36805V0ZM1.32945 2.10151L1.30703 2.46011L5.78094 2.73974L5.80336 2.38114L1.32945 2.10151Z" fill="#53D690"/>
</g>
</g>
<path d="M0.5 14.5C2.56263 15.4896 4.15366 15.3731 7.5 14.5" stroke="#53D690"/>
<defs>
<clipPath id="clip0_1135_4638">
<rect width="16" height="16" fill="white"/>
</clipPath>
</defs>
</svg>
