<svg width="16" height="16" viewBox="0 0 16 16" fill="none" xmlns="http://www.w3.org/2000/svg">
<g clip-path="url(#clip0_1135_4669)">
<path fill-rule="evenodd" clip-rule="evenodd" d="M2.60407 13.5545C2.62362 13.5659 2.63851 13.574 2.65621 13.5811L2.65951 13.5825C2.68534 13.5935 2.69922 13.5951 2.70581 13.5953C2.71218 13.5954 2.71989 13.5945 2.73534 13.5894C2.73975 13.5879 2.74672 13.5851 2.75579 13.5815C2.79258 13.5668 2.86401 13.5382 2.94012 13.5273L2.94751 13.5263C3.0596 13.5161 3.16899 13.5688 3.25522 13.6235C3.347 13.6818 3.44151 13.7617 3.53092 13.8453C3.64286 13.9501 3.76155 14.0755 3.86158 14.1812C3.91643 14.2391 3.96566 14.2912 4.00509 14.3306C4.01232 14.3378 4.02197 14.3469 4.03336 14.3576C4.08702 14.408 4.17907 14.4944 4.23588 14.5939C4.27311 14.659 4.30207 14.7391 4.29987 14.8311C4.29763 14.9244 4.26363 15.0162 4.19793 15.1038C4.15531 15.1606 4.06141 15.2533 3.9737 15.3356C3.92257 15.3835 3.86907 15.432 3.82132 15.4738L3.77346 15.6542L2.78211 15.5409L2.87524 15.3546C2.94667 15.2118 3.03506 15.1135 3.1369 15.0509C3.23833 14.9885 3.34181 14.9684 3.43157 14.9633C3.49168 14.9599 3.5571 14.9636 3.60526 14.9663C3.62263 14.9672 3.63776 14.9681 3.64958 14.9684C3.68315 14.9694 3.69819 14.9672 3.70298 14.9664C3.79513 14.8888 3.82764 14.8422 3.83747 14.818C3.83768 14.8175 3.83789 14.817 3.83809 14.8165C3.84137 14.8086 3.84317 14.8042 3.83067 14.7836C3.81041 14.7501 3.77068 14.709 3.69891 14.6406C3.69236 14.6343 3.68563 14.6279 3.67872 14.6214C3.61524 14.561 3.53735 14.4869 3.45721 14.3962C3.3015 14.2238 3.19482 14.1164 3.11773 14.0508C3.03828 13.9831 3.00537 13.9734 2.99704 13.9719C2.99722 13.972 2.99686 13.9719 2.99704 13.9719C2.99423 13.9713 2.98893 13.9701 2.94368 13.9875C2.94225 13.9881 2.94081 13.9886 2.93934 13.9892C2.89263 14.0072 2.82319 14.034 2.72455 14.041L2.71417 14.0417C2.60092 14.0417 2.5309 14.0188 2.4682 13.983C2.44884 13.9719 2.43519 13.9633 2.4238 13.956C2.4014 13.9418 2.38771 13.9332 2.35653 13.9226C2.32557 13.9136 2.30468 13.9151 2.28853 13.9195C2.27021 13.9244 2.24849 13.9355 2.22065 13.9582C2.19213 13.9815 2.16275 14.0121 2.12711 14.0515C2.12002 14.0593 2.11259 14.0676 2.10488 14.0763C2.07633 14.1082 2.04392 14.1444 2.01031 14.178C1.96213 14.2262 1.91569 14.2752 1.86997 14.3234C1.78055 14.4176 1.69386 14.509 1.60221 14.5861C1.56921 14.6188 1.53518 14.65 1.50426 14.6783C1.49713 14.6848 1.49016 14.6912 1.48341 14.6974C1.44451 14.7332 1.41138 14.7646 1.38301 14.7966C1.32829 14.8581 1.29737 14.9145 1.29021 14.986L1.26451 15.2431L1.05784 15.0881C1.0313 15.0682 1.01319 15.0578 0.991426 15.0453C0.98301 15.0405 0.974046 15.0353 0.963837 15.0292C0.924483 15.0056 0.883005 14.9753 0.844727 14.9179L0.924386 14.8648L0.897461 14.6988C0.888701 14.7018 0.884294 14.705 0.884293 14.7051C0.884293 14.7051 0.886387 14.7036 0.890593 14.6994C0.899225 14.6907 0.9102 14.6774 0.924105 14.6584C0.933198 14.646 0.940899 14.635 0.949283 14.6229C0.954582 14.6153 0.960154 14.6073 0.966522 14.5983C0.979706 14.5797 0.998777 14.5534 1.01982 14.5323L1.67917 13.873C1.70655 13.8501 1.73713 13.8206 1.77473 13.7827C1.77721 13.7802 1.77972 13.7776 1.78226 13.7751C1.81637 13.7406 1.85547 13.7011 1.8969 13.6639C1.98322 13.5866 2.1017 13.4984 2.24982 13.4819C2.36932 13.4687 2.45227 13.4806 2.52602 13.5129C2.55441 13.5253 2.57982 13.5402 2.59762 13.5507C2.5999 13.552 2.60205 13.5533 2.60407 13.5545ZM3.62422 15.2591C3.60425 15.2583 3.58605 15.2573 3.56871 15.2563C3.52762 15.2539 3.49138 15.2518 3.44804 15.2543C3.38931 15.2576 3.3373 15.2697 3.28954 15.2991C3.28668 15.3008 3.2838 15.3027 3.2809 15.3046L3.53551 15.3337L3.54211 15.3284C3.56358 15.3113 3.59201 15.2872 3.62422 15.2591Z" fill="#53D690"/>
<path fill-rule="evenodd" clip-rule="evenodd" d="M3.05627 14.8215C2.91443 14.2844 2.26204 14.1188 1.87118 14.5097C1.72663 14.6542 1.69568 14.7988 1.68868 14.9179C1.68722 14.9427 1.68677 14.9666 1.68638 14.9867C1.68634 14.9888 1.6863 14.9909 1.68626 14.9929C1.68582 15.0155 1.68534 15.0326 1.68404 15.048C1.68149 15.0781 1.67657 15.0879 1.67367 15.0922L1.60742 15.1916L1.69187 15.276C1.72525 15.3094 1.767 15.334 1.80517 15.3524C1.84497 15.3717 1.89003 15.3887 1.93684 15.4038C2.03045 15.434 2.14113 15.4598 2.25172 15.4813C2.47329 15.5245 2.70805 15.5531 2.83512 15.5647L3.13851 15.5922L2.98459 15.3614C2.98609 15.3586 2.98774 15.3556 2.98951 15.3524C3.00917 15.3166 3.04432 15.2527 3.06424 15.1815C3.0915 15.0842 3.09605 14.9678 3.05627 14.8215ZM2.71118 15.2582L2.71337 15.2516L2.718 15.2424C2.72792 15.2225 2.73663 15.2066 2.74437 15.1924C2.76133 15.1613 2.77363 15.1388 2.78366 15.1029C2.79559 15.0603 2.80227 14.9976 2.775 14.8976L2.77465 14.8963C2.69201 14.5823 2.31376 14.4792 2.07721 14.7157C1.99763 14.7953 1.98375 14.8636 1.97955 14.935C1.97845 14.9537 1.9781 14.9719 1.97769 14.9929C1.97765 14.9948 1.97762 14.9967 1.97758 14.9986C1.97715 15.0206 1.97658 15.0466 1.97437 15.0726C1.97345 15.0834 1.97221 15.0949 1.97045 15.1068C1.98689 15.1132 2.00551 15.1198 2.02626 15.1265C2.10425 15.1516 2.20229 15.1749 2.30743 15.1953C2.44727 15.2226 2.59369 15.2438 2.71118 15.2582Z" fill="#53D690"/>
<path fill-rule="evenodd" clip-rule="evenodd" d="M12.1914 4.49414H12.195C12.241 4.49414 12.2827 4.50854 12.3134 4.52194C12.3461 4.53626 12.3788 4.55518 12.4096 4.57531C12.4712 4.61561 12.5365 4.66818 12.5965 4.72086C12.7116 4.8219 12.8239 4.93835 12.8687 4.99646L13.0005 5.15016C13.1504 5.32512 13.248 5.52262 13.3194 5.73683L13.1004 5.90412C13.0569 5.8751 12.9805 5.81047 12.8962 5.73574C12.8086 5.65813 12.7038 5.56178 12.5992 5.46288C12.3948 5.26955 12.1772 5.05305 12.1009 4.95136L12.093 4.94086L12.0623 4.87938C12.0449 4.86434 12.033 4.8476 12.0251 4.83276L11.877 4.68463L11.98 4.58163C11.9853 4.5763 11.9881 4.57312 11.9924 4.56815C11.994 4.56637 11.9958 4.56436 11.9979 4.56193L11.9986 4.56116C12.0055 4.5534 12.0253 4.53097 12.0571 4.51511C12.0894 4.49896 12.1202 4.49617 12.1369 4.49512C12.1528 4.49413 12.1723 4.49413 12.1914 4.49414Z" fill="#53D690"/>
<path fill-rule="evenodd" clip-rule="evenodd" d="M0.0674358 12.7851C0.0680548 12.7816 0.0686774 12.778 0.0693035 12.7744C0.0865691 12.6763 0.106526 12.5792 0.128551 12.4833C0.181841 12.2515 0.247239 12.027 0.315926 11.8123C0.403207 11.5371 0.516634 11.2819 0.651988 11.0444C0.653652 11.0415 0.65532 11.0386 0.65699 11.0357C0.97308 10.4844 1.40753 10.0287 1.90726 9.63821C1.92476 9.62421 1.94117 9.61075 1.95691 9.59785C2.04197 9.5281 2.10757 9.47431 2.22105 9.43648C2.26063 9.46287 2.29245 9.5048 2.32564 9.54854C2.34884 9.57911 2.3727 9.61055 2.40035 9.63821C2.8262 10.1538 3.54343 10.49 4.23823 10.49C4.66409 10.49 5.13476 10.3555 5.44855 10.1538C5.73992 9.9744 6.0537 9.70543 6.2106 9.41406C6.32619 9.44422 6.45757 9.51833 6.59487 9.62098C7.057 9.96649 7.58623 10.6354 7.80669 11.0396C7.81282 11.0509 7.8187 11.0619 7.82435 11.0727C8.18296 11.7227 8.54157 12.7985 8.45192 13.6726C8.36226 14.4571 7.44332 14.9502 6.70369 15.1743C6.5892 15.2099 6.47761 15.2415 6.36811 15.2695C5.84539 15.4033 5.37055 15.4561 4.858 15.4816C4.8157 15.4837 4.77315 15.4856 4.7303 15.4873C4.49067 15.4971 4.24151 15.502 3.97441 15.5073C3.92114 15.5083 3.86715 15.5094 3.81238 15.5105L3.65549 15.4433C3.69833 15.4218 3.75254 15.38 3.8087 15.3299C3.85543 15.2883 3.90351 15.241 3.94752 15.1952C4.01666 15.1232 4.07576 15.0547 4.10376 15.0174C4.17498 14.9017 4.17901 14.8036 4.15097 14.7204C4.12844 14.6536 4.0852 14.5964 4.03947 14.5473C4.01376 14.5197 3.98725 14.4946 3.9632 14.4719C3.94925 14.4588 3.93612 14.4464 3.92445 14.4347C3.91162 14.4206 3.89799 14.4055 3.88363 14.3896C3.85429 14.3572 3.82195 14.3215 3.78735 14.2838C3.54312 14.0177 3.18669 13.6541 2.9831 13.6726C2.939 13.68 2.90214 13.6946 2.86697 13.7085C2.84444 13.7174 2.8226 13.726 2.8 13.7323C2.75032 13.7461 2.69697 13.7485 2.62449 13.7175C2.58055 13.7028 2.55097 13.6858 2.52402 13.6703C2.47921 13.6444 2.44167 13.6228 2.3575 13.6234C2.35478 13.6234 2.352 13.6234 2.34918 13.6235C2.34929 13.6235 2.34907 13.6235 2.34918 13.6235C2.3312 13.6239 2.31084 13.6253 2.28829 13.6278C2.28346 13.6278 2.27864 13.6279 2.27384 13.6282C2.18241 13.6335 2.09586 13.6881 2.01843 13.7559C1.96105 13.8062 1.90869 13.8637 1.86305 13.9139C1.83837 13.941 1.81566 13.9659 1.7952 13.9864L1.14521 14.6364C1.13001 14.6516 1.11224 14.6771 1.09276 14.7051C1.05617 14.7576 1.01357 14.8187 0.97075 14.8363M0.452145 14.5391C0.598158 14.6827 0.756369 14.7895 0.88838 14.8381C0.915433 14.8481 0.941386 14.8556 0.965909 14.8605V14.8381M0.452145 14.5391C0.217837 14.3086 0.0149423 13.983 0.0021412 13.6502C0.000309654 13.5971 -0.000324538 13.5441 0.000153011 13.4913C0.000153 13.4913 0.000153022 13.4913 0.000153011 13.4913C0.00232214 13.2516 0.0274233 13.0154 0.0674358 12.7851M5.28808 12.6075C5.3893 12.7131 5.47538 12.8079 5.53278 12.8715C5.55722 12.8949 5.59314 12.9297 5.63237 12.9701C5.66665 13.0053 5.71124 13.0526 5.76162 13.1113C5.85146 13.0893 5.94265 13.0638 6.03787 13.0342L6.04577 13.0317L6.05369 13.0293C6.09308 13.0174 6.13257 13.0042 6.1713 12.9899C6.16269 12.9518 6.1528 12.9116 6.14147 12.8694C6.09463 12.6948 6.03507 12.5299 5.97546 12.3908C5.75278 12.4806 5.52166 12.553 5.28808 12.6075Z" fill="#53D690"/>
<path fill-rule="evenodd" clip-rule="evenodd" d="M8.98623 8.49286C8.78894 8.49403 8.5954 8.49473 8.4067 8.49473H6.94984C6.90726 8.49473 6.86019 8.49248 6.81076 8.49012C6.72 8.48579 6.6213 8.48108 6.52784 8.48919C6.51143 8.49062 6.49518 8.49244 6.47917 8.49473L6.32227 8.98782L6.34469 8.9654C6.38922 8.98253 6.44005 9.00909 6.49491 9.04275C6.51726 9.05646 6.54028 9.07135 6.56381 9.08726C6.68558 9.16958 6.82125 9.27924 6.94984 9.39454C7.1346 9.56019 7.30476 9.73746 7.39811 9.86193C7.6692 10.1764 7.79864 10.3597 7.89304 10.5134C7.90257 10.5289 7.91174 10.5441 7.92067 10.5591C7.94468 10.5995 7.96691 10.6385 7.98948 10.6781C8.00037 10.6972 8.01135 10.7164 8.02264 10.736C8.07115 10.8203 8.12559 10.9114 8.20498 11.0274H15.6686C15.6686 10.9153 15.1306 9.95158 15.0186 9.77228L14.3462 8.49473C13.1687 8.44944 11.7269 8.46516 10.3426 8.48024C9.94626 8.48456 9.55462 8.48883 9.17525 8.4916L9.17184 8.49163C9.10963 8.49208 9.04775 8.4925 8.98623 8.49286Z" fill="#53D690"/>
<path fill-rule="evenodd" clip-rule="evenodd" d="M13.4282 8.18079C13.4282 8.11171 13.4294 8.02526 13.4306 7.92636C13.4335 7.70245 13.4372 7.41477 13.4307 7.12064C13.43 7.08949 13.4292 7.05827 13.4282 7.02705C13.4189 6.71535 13.3969 6.40322 13.3492 6.15839C13.3426 6.12447 13.3355 6.09183 13.3278 6.06067C13.323 6.04084 13.3179 6.02161 13.3126 6.00302C13.3063 5.9809 13.2997 5.95969 13.2927 5.93947C13.2624 5.85128 13.2258 5.78188 13.1817 5.73774C13.0797 5.66977 12.6556 5.27966 12.3979 5.01684C12.3157 4.93303 12.2504 4.86216 12.2179 4.81881L12.1955 4.77398C12.1952 4.7737 12.1912 4.76963 12.1867 4.7634C12.1804 4.75478 12.1731 4.74197 12.1731 4.72916C12.1731 4.72916 12.1731 4.70674 12.1507 4.70674L12.0835 4.6395C12.0454 4.67123 12.0131 4.70071 11.9854 4.72916C11.9631 4.75205 11.9437 4.77427 11.9265 4.79645C11.9218 4.80255 11.9172 4.80865 11.9128 4.81476C11.881 4.85892 11.8572 4.9036 11.8359 4.95375C11.8266 4.97573 11.8177 4.99877 11.8089 5.02327C11.8045 5.03578 11.8 5.04868 11.7954 5.06202C11.786 5.08959 11.7764 5.11902 11.766 5.15082C11.765 5.15385 11.764 5.15691 11.763 5.15998C11.7559 5.18195 11.7483 5.20504 11.7402 5.2294C11.7231 5.28066 11.7036 5.33756 11.68 5.40154C11.6275 5.53283 11.5565 5.72194 11.4763 5.93947C11.4156 6.10426 11.3495 6.28537 11.2822 6.47C11.2521 6.55241 11.2218 6.63552 11.1916 6.7182C11.1904 6.72147 11.1892 6.72473 11.188 6.72799C11.1824 6.74333 11.1768 6.75865 11.1712 6.77395C11.1602 6.80407 11.1492 6.83411 11.1383 6.86399C11.1332 6.87787 11.1281 6.89171 11.123 6.90552C10.9539 7.36642 10.7967 7.78567 10.7163 7.95666C10.6774 7.89841 10.483 7.39436 10.2623 6.80704C10.1558 6.52366 10.0432 6.2209 9.93897 5.93947C9.85953 5.7249 9.78498 5.52273 9.72177 5.35102C9.67722 5.23002 9.6383 5.12414 9.60726 5.0397C9.58345 4.97491 9.56427 4.92274 9.55075 4.88605C9.54115 4.85724 9.5264 4.82945 9.50827 4.80292C9.44589 4.71161 9.34347 4.6351 9.27288 4.58236C9.26823 4.57889 9.26373 4.57553 9.25938 4.57227C8.93313 4.76598 8.69036 4.98868 8.50996 5.23298C8.49782 5.24943 8.48596 5.26597 8.47437 5.28261C8.33113 5.48836 8.23012 5.70873 8.15919 5.93947C8.14317 5.99157 8.12869 6.0442 8.1156 6.09731C8.04665 6.37705 8.01636 6.67009 8.00424 6.96927C8.00177 7.03046 8.00005 7.09192 7.99892 7.15356C7.99514 7.35966 7.9979 7.56793 8.00066 7.7761C8.00245 7.91125 8.00424 8.04636 8.00424 8.18079H13.4282ZM12.1582 4.72916H12.1507C12.1532 4.72916 12.1557 4.72916 12.1582 4.72916Z" fill="#53D690"/>
<path fill-rule="evenodd" clip-rule="evenodd" d="M5.73939 9.25716C6.03076 8.92096 6.23248 8.3158 6.12042 7.73306C5.9187 6.72446 5.04458 6.00725 3.94634 6.16414H3.92392C2.96015 6.29862 2.17569 7.21755 2.33258 8.36063C2.55672 10.0192 4.68597 10.5571 5.73939 9.25716ZM3.92392 7.98118C3.92199 7.9868 3.92053 7.99169 3.91937 7.99591C3.91439 8.01413 3.9035 8.0622 3.91705 8.14315L3.91761 8.14643C3.91818 8.14968 3.91878 8.15298 3.91942 8.15633L3.92392 8.15546V7.98118ZM4.19452 8.10342L4.14566 7.75329C4.15481 7.75057 4.16373 7.74835 4.1724 7.74659C4.2172 7.73748 4.2556 7.74049 4.28719 7.74868C4.32547 7.75859 4.38455 7.78446 4.44428 7.84799C4.50312 7.91058 4.53605 7.98241 4.54888 8.03528L4.19452 8.10342ZM3.92392 8.17236L3.92262 8.17262C3.92262 8.17262 3.92317 8.17505 3.92392 8.17751V8.17236ZM4.23361 8.3836L4.19653 8.11784L4.55144 8.04685C4.55205 8.04994 4.55258 8.05294 4.55304 8.05586L4.5533 8.05755L4.55359 8.06049C4.55576 8.08731 4.54912 8.14168 4.51856 8.19911C4.51076 8.21377 4.5014 8.22863 4.49023 8.24327L4.48946 8.24428C4.44693 8.29958 4.37335 8.35653 4.26274 8.37899C4.25391 8.38078 4.24485 8.38235 4.23555 8.38369L4.23361 8.3836Z" fill="#53D690"/>
<path fill-rule="evenodd" clip-rule="evenodd" d="M10.537 1.72552C11.4336 1.61345 12.1284 2.26344 12.2404 3.02549C12.3525 3.8996 11.7025 4.63925 10.9405 4.75131C9.99911 4.88579 9.32671 4.23581 9.19224 3.47376C9.03534 2.55482 9.73015 1.81517 10.5146 1.72552H10.537ZM10.5146 2.55473C10.348 2.60071 10.2331 2.69177 10.1603 2.7838C10.0612 2.90907 9.99043 3.10089 10.0173 3.3105L10.3832 3.2636L10.5146 3.2404V2.55473ZM10.6843 3.21045L10.6071 2.53494C10.6095 2.53456 10.612 2.5342 10.6144 2.53384L10.7131 3.20537L10.6843 3.21045ZM10.686 3.22478L10.6853 3.21885L10.7144 3.21388L10.7154 3.221L10.686 3.22478ZM10.5146 3.27928V3.91874C10.4259 3.89033 10.3413 3.84554 10.2689 3.78673C10.137 3.67945 10.0492 3.5299 10.023 3.35158L10.5146 3.27928ZM10.6893 3.2536L10.7196 3.24914L10.8218 3.94458C10.8194 3.94502 10.817 3.94544 10.8146 3.94586C10.7997 3.94841 10.7846 3.95058 10.7691 3.95234L10.6893 3.2536ZM10.8251 3.94397C11.0081 3.91003 11.1463 3.81749 11.2414 3.70023C11.3568 3.55792 11.4277 3.35205 11.4084 3.14785L10.7257 3.24823L10.7388 3.33933L10.8251 3.94397ZM10.7217 3.22019L11.4067 3.13237C11.4053 3.12042 11.4036 3.10847 11.4016 3.09655L10.7207 3.21281L10.7217 3.22019ZM10.7195 3.20425L11.3995 3.08425C11.3769 2.9563 11.3077 2.81306 11.16 2.69539C10.9888 2.55911 10.7815 2.51478 10.6377 2.53072C10.6329 2.53125 10.6282 2.53185 10.6235 2.53252L10.7195 3.20425Z" fill="#53D690"/>
<path fill-rule="evenodd" clip-rule="evenodd" d="M7.6899 0L7.66749 5.87226C7.64508 5.82744 7.62267 5.80502 7.57784 5.76019L6.00891 3.89989C5.97964 3.88038 5.81339 3.86723 5.56655 3.85861C5.52456 3.85715 5.48023 3.85581 5.43386 3.8546C5.32235 3.85168 5.19896 3.84947 5.06756 3.84783C4.93267 3.84615 4.78933 3.84508 4.64171 3.84448C4.00557 3.84189 3.29005 3.84806 2.82925 3.85204C2.80512 3.85224 2.78169 3.85245 2.759 3.85264C2.59356 3.85406 2.46782 3.85507 2.40039 3.85507V0H7.6899ZM2.759 3.47405H6.14339C6.15569 3.4925 6.1836 3.52908 6.223 3.57877C6.24272 3.60364 6.26532 3.63179 6.29029 3.66259C6.57906 4.01887 7.18428 4.72984 7.30888 4.81884V0.358602H2.759V3.47405Z" fill="#53D690"/>
<path fill-rule="evenodd" clip-rule="evenodd" d="M2.25794 13.6384C2.33039 13.619 2.40701 13.6204 2.48701 13.6444L2.49124 13.6456C2.56092 13.6689 2.61412 13.7028 2.64231 13.7208C2.64869 13.7249 2.65379 13.7282 2.65751 13.7304C2.67281 13.7391 2.69181 13.7497 2.75362 13.7503C2.80585 13.7459 2.84076 13.7324 2.88364 13.7159C2.88526 13.7153 2.88714 13.7146 2.88886 13.7139C2.93224 13.6972 3.0036 13.6696 3.09243 13.6853C3.17936 13.7006 3.26131 13.7525 3.35136 13.8292C3.44368 13.9077 3.56097 14.0271 3.71875 14.2018L3.71988 14.2031C3.79135 14.2841 3.86048 14.3499 3.92458 14.4109C3.93137 14.4174 3.9381 14.4237 3.94478 14.43C4.00958 14.4918 4.08052 14.56 4.1247 14.633C4.17588 14.7176 4.19692 14.8178 4.15221 14.9279C4.11394 15.0222 4.03282 15.1085 3.92803 15.1958C3.84735 15.263 3.74281 15.2616 3.68592 15.26C3.65912 15.2592 3.63559 15.2578 3.61346 15.2565C3.57238 15.2542 3.53614 15.2521 3.49279 15.2545C3.43407 15.2579 3.38205 15.27 3.3343 15.2994C3.28695 15.3285 3.23245 15.3815 3.18061 15.4852L3.14034 15.5657H2.79303L2.75636 15.5107C2.74521 15.5032 2.73162 15.4918 2.71951 15.4751C2.69908 15.4469 2.69169 15.4159 2.69169 15.3892C2.69169 15.3662 2.69718 15.3486 2.69988 15.3408C2.70286 15.3322 2.70603 15.3257 2.70741 15.3229L2.71097 15.3162L2.71245 15.3135L2.7147 15.3092C2.71676 15.305 2.72206 15.2934 2.73038 15.2692C2.73995 15.2277 2.75584 15.1916 2.76756 15.1656C2.76962 15.161 2.77159 15.1568 2.77347 15.1526C2.78463 15.1279 2.79296 15.1094 2.80003 15.0882C2.81357 15.0476 2.82355 14.9929 2.79769 14.8981L2.79586 14.8914C2.73264 14.6069 2.3373 14.4788 2.0999 14.7162C2.02032 14.7958 2.00644 14.8642 2.00224 14.9356C2.00114 14.9543 2.00079 14.9724 2.00038 14.9934C2.00035 14.9952 2.00031 14.9971 2.00027 14.9991C1.99984 15.0211 1.99927 15.0472 1.99706 15.0732C1.99262 15.1256 1.98072 15.1915 1.9388 15.2544L1.90015 15.3123L1.83077 15.3186C1.66779 15.3334 1.53208 15.2803 1.42336 15.2304C1.3974 15.2184 1.37345 15.2069 1.35092 15.1962C1.2712 15.1582 1.20923 15.1287 1.13902 15.1147L1.1535 14.9686L1.04492 14.9587C1.0703 14.6796 1.26052 14.5255 1.39767 14.4145C1.41615 14.3995 1.43366 14.3853 1.44968 14.3717L1.84904 13.9723C1.87637 13.9449 1.90155 13.9168 1.92921 13.8859C1.93775 13.8764 1.94653 13.8666 1.95568 13.8564C1.99218 13.816 2.03425 13.771 2.08136 13.7326C2.12918 13.6936 2.1873 13.6573 2.25794 13.6384ZM1.36066 14.8807C1.40823 14.9002 1.45269 14.9215 1.49244 14.9406C1.51105 14.9495 1.52862 14.958 1.545 14.9655C1.60528 14.9932 1.65756 15.0135 1.70818 15.0233C1.70851 15.0144 1.70874 15.0045 1.70896 14.9934C1.70899 14.9914 1.70903 14.9893 1.70907 14.9872C1.70946 14.9671 1.70991 14.9431 1.71137 14.9184C1.71837 14.7993 1.74932 14.6547 1.89387 14.5102C2.28318 14.1209 2.96139 14.3049 3.07968 14.8247C3.11134 14.9426 3.11043 15.0372 3.09353 15.1176C3.12163 15.0921 3.15103 15.07 3.18166 15.0512C3.28309 14.9888 3.38657 14.9688 3.47633 14.9637C3.53644 14.9603 3.60186 14.9639 3.65002 14.9666C3.66739 14.9675 3.68252 14.9684 3.69434 14.9687C3.72791 14.9697 3.74295 14.9675 3.74774 14.9667C3.83989 14.8891 3.8724 14.8426 3.88223 14.8183C3.88244 14.8178 3.88265 14.8173 3.88285 14.8169C3.88613 14.8089 3.88793 14.8045 3.87543 14.7839C3.85517 14.7504 3.81544 14.7093 3.74367 14.6409C3.73712 14.6346 3.73039 14.6283 3.72348 14.6217C3.66 14.5614 3.58212 14.4872 3.50197 14.3964C3.34626 14.2241 3.23958 14.1166 3.16249 14.051C3.08304 13.9834 3.05013 13.9737 3.0418 13.9722C3.04198 13.9722 3.04161 13.9722 3.0418 13.9722C3.03899 13.9716 3.03369 13.9704 2.98844 13.9878C2.98701 13.9884 2.98557 13.989 2.9841 13.9896C2.93739 14.0076 2.86795 14.0342 2.76931 14.0413L2.75893 14.042C2.64568 14.042 2.57566 14.0192 2.51296 13.9833C2.4936 13.9723 2.47995 13.9635 2.46856 13.9563C2.44616 13.9421 2.43247 13.9335 2.40129 13.923C2.37033 13.914 2.34944 13.9154 2.33328 13.9197C2.31497 13.9246 2.29324 13.9359 2.26541 13.9586C2.23689 13.9818 2.20751 14.0123 2.17187 14.0518C2.16478 14.0596 2.15735 14.068 2.14964 14.0766C2.12109 14.1086 2.08868 14.1447 2.05507 14.1783L1.64371 14.5897C1.6189 14.6109 1.59507 14.6302 1.57289 14.6487C1.47104 14.7337 1.39773 14.795 1.36066 14.8807ZM2.79705 15.5299C2.79879 15.5304 2.80013 15.5308 2.80009 15.5308L2.79896 15.5305" fill="#53D690"/>
<path fill-rule="evenodd" clip-rule="evenodd" d="M10.8275 5.44669C10.8071 5.3717 10.797 5.31744 10.7897 5.27824C10.773 5.18858 10.771 5.17773 10.693 5.17773C10.6059 5.17773 10.5564 5.36612 10.5201 5.52917L10.5198 5.53062C10.5159 5.54797 10.5122 5.56502 10.5087 5.58151C10.4941 5.64862 10.4815 5.70659 10.4689 5.73806C10.4465 5.83892 10.4185 5.94538 10.3905 6.05184C10.3625 6.1583 10.3344 6.26477 10.312 6.36563C10.3011 6.4146 10.3074 6.48471 10.3248 6.56665L10.3255 6.56979C10.3746 6.79856 10.5088 7.118 10.597 7.32792C10.6073 7.35243 10.617 7.37544 10.6258 7.39665C10.6258 7.40373 10.628 7.41081 10.6311 7.41789C10.6329 7.42202 10.635 7.42614 10.637 7.43027C10.6426 7.44147 10.6482 7.45268 10.6482 7.46388L10.693 7.55354L10.7155 7.53112C10.7209 7.51131 10.7282 7.48875 10.7369 7.46388C10.7421 7.44942 10.7477 7.43417 10.7537 7.41823C10.7549 7.41532 10.756 7.4124 10.7571 7.40944C10.7587 7.40522 10.7604 7.40096 10.7621 7.39665C10.7705 7.37501 10.7796 7.35224 10.7892 7.32855C10.8058 7.28783 10.824 7.24438 10.8428 7.19917C10.9337 6.98145 11.0415 6.72315 11.0732 6.53479C11.0845 6.46795 11.0862 6.40992 11.0741 6.36563L10.8275 5.44669Z" fill="#53D690"/>
<path fill-rule="evenodd" clip-rule="evenodd" d="M6.39047 1.32227L6.36806 1.68089H3.56641V1.32227H6.39047Z" fill="#53D690"/>
<path fill-rule="evenodd" clip-rule="evenodd" d="M6.39042 2.6008L6.36801 2.24219H3.56636L3.54395 2.6008H6.39042Z" fill="#53D690"/>
<path d="M7.00035 12L1.0004 13.5C1.0004 13.5 0.000269994 13.5 0.500403 14.5C1.00054 15.5 2.94583 15.7045 5.00037 15.5L7.00035 12Z" fill="#53D690"/>
<path d="M5 8C5 8.55228 4.55228 9 4 9C3.44772 9 3 8.55228 3 8C3 7.44772 3.44772 7 4 7C4.55228 7 5 7.44772 5 8Z" fill="#53D690"/>
<path d="M10 2.5H11.5V4.5L9.5 3.5L10 2.5Z" fill="#53D690"/>
</g>
<defs>
<clipPath id="clip0_1135_4669">
<rect width="16" height="16" fill="white"/>
</clipPath>
</defs>
</svg>
