<svg width="64" height="64" viewBox="0 0 64 64" fill="none" xmlns="http://www.w3.org/2000/svg">
<path fill-rule="evenodd" clip-rule="evenodd" d="M38.4368 50.3267C38.4368 46.3631 40.4186 42.3994 42.4004 40.4176C44.3822 40.4176 44.3822 40.4176 44.3822 40.4176C46.364 38.4358 48.3459 38.4358 50.3277 38.4358C52.3095 38.4358 54.2913 38.4358 54.2913 40.4176C58.255 40.4176 60.2368 46.3631 60.2368 50.3267C60.2368 52.3085 60.2368 56.2722 58.255 58.254C56.2731 58.254 56.2731 60.2358 54.2913 60.2358C50.3277 62.2176 46.364 62.2176 42.4004 58.254C40.4186 56.2722 38.4368 54.2903 38.4368 50.3267ZM20.6004 34.4722C20.6004 32.4903 20.6004 30.5085 20.6004 30.5085C22.5822 26.5449 28.5277 24.5631 34.4731 28.5267C36.455 30.5085 36.455 36.454 34.4731 38.4358L30.5095 40.4176C26.5459 44.3813 20.6004 40.4176 20.6004 34.4722ZM40.4186 34.4722C40.4186 30.5085 44.3822 30.5085 44.3822 34.4722C44.3822 36.454 40.4186 36.454 40.4186 34.4722ZM10.6913 34.4722C10.6913 30.5085 14.655 30.5085 14.655 34.4722C14.655 36.454 10.6913 36.454 10.6913 34.4722ZM4.74586 30.5085C4.74586 32.4903 4.74586 30.5085 4.74586 32.4903V34.4722C4.74586 36.454 4.74586 34.4722 4.74586 36.454V38.4358V40.4176H6.72768C8.7095 40.4176 8.7095 42.3994 10.6913 42.3994C10.6913 46.3631 8.7095 46.3631 16.6368 46.3631C24.564 46.3631 30.5095 46.3631 36.455 46.3631C36.455 46.3631 36.455 46.3631 36.455 48.3449H6.72768C4.74586 48.3449 2.76404 46.3631 2.76404 44.3813V22.5813C2.76404 20.5994 4.74586 20.5994 4.74586 20.5994H50.3277C54.2913 20.5994 52.3095 24.5631 52.3095 26.5449C52.3095 30.5085 52.3095 34.4722 52.3095 36.454H50.3277V28.5267C50.3277 26.5449 48.3459 28.5267 46.364 26.5449C46.364 24.5631 46.364 24.5631 46.364 24.5631C46.364 22.5813 46.364 22.5813 44.3822 22.5813H10.6913C8.7095 22.5813 10.6913 26.5449 6.72768 26.5449C4.74586 26.5449 4.74586 26.5449 4.74586 28.5267C4.74586 28.5267 4.74586 28.5267 4.74586 30.5085ZM14.655 18.6176L34.4731 8.70852C34.4731 8.70852 44.3822 2.76307 46.364 2.76307C48.3459 2.76307 48.3459 4.74489 50.3277 8.70852L54.2913 16.6358C54.2913 18.6176 58.255 24.5631 58.255 26.5449C58.255 28.5267 56.2731 28.5267 54.2913 28.5267V24.5631C54.2913 20.5994 54.2913 20.5994 54.2913 18.6176C52.3095 18.6176 52.3095 18.6176 52.3095 16.6358C52.3095 16.6358 52.3095 16.6358 50.3277 14.654V12.6722C50.3277 12.6722 50.3277 10.6903 48.3459 10.6903C48.3459 8.70852 48.3459 10.6903 46.364 10.6903C42.4004 10.6903 42.4004 6.7267 40.4186 6.7267L22.5822 16.6358C18.6186 18.6176 18.6186 18.6176 14.655 18.6176ZM0.782227 22.5813V46.3631C2.76404 48.3449 4.74586 50.3267 4.74586 50.3267H36.455C36.455 54.2903 38.4368 56.2722 40.4186 60.2358C42.4004 62.2176 46.364 62.2176 50.3277 62.2176C56.2731 62.2176 60.2368 60.2358 62.2186 56.2722C64.2004 50.3267 64.2004 44.3813 60.2368 40.4176C58.255 40.4176 56.2731 38.4358 56.2731 38.4358C54.2913 36.454 54.2913 38.4358 54.2913 36.454V32.4903C54.2913 32.4903 54.2913 32.4903 56.2731 30.5085C58.255 30.5085 60.2368 28.5267 60.2368 24.5631C60.2368 24.5631 58.255 20.5994 58.255 18.6176L52.3095 8.70852C52.3095 6.7267 52.3095 6.7267 50.3277 4.74489C50.3277 4.74489 50.3277 4.74489 50.3277 2.76307L48.3459 0.78125C46.364 0.78125 44.3822 0.78125 42.4004 0.78125C38.4368 4.74489 32.4913 6.7267 28.5277 8.70852L10.6913 16.6358C8.7095 18.6176 8.7095 18.6176 8.7095 18.6176C6.72768 18.6176 4.74586 16.6358 2.76404 18.6176C0.782227 20.5994 0.782227 20.5994 0.782227 22.5813Z" fill="#53D690"/>
<path fill-rule="evenodd" clip-rule="evenodd" d="M50.3276 42.3985C46.364 42.3985 44.3822 42.3985 42.4003 44.3803C42.4003 46.3621 40.4185 48.3439 42.4003 48.3439C44.3822 48.3439 44.3822 46.3621 44.3822 44.3803C48.3458 42.3985 50.3276 44.3803 50.3276 44.3803C50.3276 44.3803 50.3276 44.3803 50.3276 46.3621C52.3094 46.3621 54.2912 46.3621 54.2912 46.3621C58.2549 46.3621 56.2731 42.3985 56.2731 42.3985C54.2912 40.4167 54.2912 40.4167 54.2912 42.3985C52.3094 42.3985 52.3094 42.3985 50.3276 42.3985Z" fill="#53D690"/>
<path fill-rule="evenodd" clip-rule="evenodd" d="M50.3277 56.2716C48.3458 56.2716 48.3458 56.2716 48.3458 56.2716C48.3458 56.2716 48.3458 56.2716 48.3458 54.2898C48.3458 54.2898 48.3458 52.308 46.364 52.308C46.364 52.308 44.3822 52.308 42.4004 54.2898C42.4004 54.2898 42.4004 54.2898 44.3822 54.2898C44.3822 56.2716 44.3822 58.2534 46.364 58.2534C48.3458 58.2534 48.3458 58.2534 50.3277 58.2534C52.3095 58.2534 54.2913 56.2716 54.2913 56.2716C56.2731 56.2716 56.2731 54.2898 56.2731 54.2898L58.2549 52.308C58.2549 50.3262 56.2731 50.3262 56.2731 50.3262C56.2731 50.3262 56.2731 52.308 54.2913 54.2898C52.3095 54.2898 52.3095 56.2716 50.3277 56.2716Z" fill="#53D690"/>
<path fill-rule="evenodd" clip-rule="evenodd" d="M28.5281 38.4364V34.4728L30.5099 36.4546C28.5281 38.4364 28.5281 36.4546 28.5281 38.4364ZM26.5463 32.491C26.5463 30.5092 26.5463 30.5092 28.5281 30.5092V32.491C26.5463 32.491 26.5463 32.491 26.5463 32.491ZM24.5645 32.491C24.5645 32.491 24.5645 34.4728 26.5463 34.4728C28.5281 34.4728 28.5281 34.4728 28.5281 36.4546C26.5463 36.4546 26.5463 36.4546 26.5463 36.4546C24.5645 36.4546 24.5645 36.4546 24.5645 36.4546C24.5645 38.4364 24.5645 38.4364 24.5645 38.4364C26.5463 38.4364 26.5463 38.4364 26.5463 38.4364C28.5281 38.4364 26.5463 38.4364 28.5281 40.4183C28.5281 40.4183 28.5281 40.4183 28.5281 38.4364C30.5099 38.4364 32.4917 36.4546 30.5099 34.4728H28.5281V30.5092C28.5281 30.5092 30.5099 32.491 30.5099 30.5092H28.5281C28.5281 28.5273 28.5281 28.5273 28.5281 28.5273C26.5463 28.5273 28.5281 28.5273 26.5463 30.5092C26.5463 30.5092 24.5645 30.5092 24.5645 32.491Z" fill="#53D690"/>
</svg>
