<svg width="301" height="301" viewBox="0 0 301 301" fill="none" xmlns="http://www.w3.org/2000/svg">
<g clip-path="url(#clip0_1139_4865)">
<path d="M0 82.474V164.948L67.9457 165.028L135.851 165.149L135.972 169.844L136.092 174.58H140.868H145.684V179.637V184.653L144.279 185.255C143.517 185.536 142.594 185.817 142.233 185.817C141.269 185.817 135.851 188.426 133.724 189.911C128.467 193.643 124.092 199.864 122.527 205.884C120.922 211.904 120.841 225.268 122.367 230.727C123.691 235.543 126.54 240.439 129.791 243.569L131.236 244.974V248.987C131.236 251.235 131.075 253.241 130.915 253.482C130.754 253.683 129.831 254.084 128.828 254.325C124.734 255.368 123.37 255.73 122.607 256.091C122.166 256.291 121.082 256.613 120.199 256.813C117.27 257.495 110.969 259.301 109.363 259.984C107.397 260.786 104.708 262.552 103.143 264.077L101.979 265.201L100.855 264.037C100.253 263.395 99.4905 262.873 99.2497 262.873C98.9688 262.873 98.728 262.713 98.728 262.512C98.728 262.111 97.7247 261.509 95.116 260.265C93.7916 259.623 92.3067 259.141 87.6913 257.857C86.6077 257.576 84.6813 257.014 83.4773 256.653C80.3871 255.73 77.1764 254.847 74.9691 254.325L73.0427 253.883V249.348V244.773L74.6881 243.088C77.1764 240.479 79.7048 236.185 81.0292 232.051L82.2733 228.359V218.606C82.2733 207.61 81.9924 206.004 79.1429 200.346C75.9323 194.005 69.5511 188.306 63.4107 186.419C62.2067 186.018 60.4408 185.456 59.4776 185.175C57.4709 184.533 50.3272 184.453 47.9593 185.055C47.0764 185.255 45.6717 185.617 44.8289 185.857C41.5781 186.66 35.4377 190.393 32.7087 193.202C31.5047 194.406 28.896 197.737 28.896 198.018C28.896 198.178 28.4545 198.981 27.8927 199.864C26.6084 201.871 25.4847 205.202 24.6419 209.456C24.1201 212.145 24.0399 214.232 24.2004 220.091C24.5616 231.609 26.3676 236.787 32.0665 242.887L34.1133 245.014L33.9929 249.389L33.9127 253.803L31.906 254.285C30.8224 254.566 28.896 255.087 27.692 255.449C26.488 255.81 24.6017 256.372 23.478 256.653C12.0801 259.663 9.11027 260.987 5.5384 264.599C3.17053 267.007 2.12707 268.813 0.802667 272.666C0.0802667 274.833 0 276.077 0 288.037V301H150.5H301V288.037C301 276.077 300.92 274.833 300.197 272.666C298.873 268.813 297.829 267.007 295.462 264.599C291.89 260.987 288.92 259.663 277.522 256.653C276.438 256.372 274.512 255.81 273.308 255.449C272.104 255.087 270.218 254.566 269.094 254.285L267.087 253.803L267.007 249.389L266.887 245.014L268.933 242.887C274.592 236.867 276.438 231.569 276.8 220.452L277.04 213.509L284.104 213.429L291.167 213.309L291.368 194.045L291.569 174.781L296.304 174.66L301 174.54V160.132V145.684H291.368H281.736V126.46C281.736 105.029 281.495 102.42 279.248 97.6043C278.565 96.1193 277.723 94.6745 277.442 94.3936C277.161 94.1127 276.92 93.7515 276.92 93.5909C276.92 93.1495 274.03 90.2197 272.104 88.6545C270.298 87.2097 265.442 84.6813 264.519 84.6813C264.238 84.6813 263.194 84.4405 262.151 84.1195C261.107 83.8385 258.82 83.2767 257.054 82.8753C255.288 82.5141 253.121 82.0325 252.238 81.8319C251.355 81.5911 249.469 81.1897 248.024 80.8687C246.579 80.5877 244.532 80.1463 243.409 79.9055C242.325 79.6647 240.639 79.2633 239.716 79.0225L237.991 78.5409V74.8888V71.2367L239.355 70.3136C240.599 69.4708 244.091 65.9391 245.616 63.9725C246.338 63.0495 248.867 58.7953 249.549 57.3907C250.593 55.1432 251.596 51.3707 251.997 48.2001C252.92 41.0564 252.318 27.1301 250.914 23.6787C250.673 23.1168 250.111 21.7121 249.629 20.5081C248.666 18.1001 246.86 15.05 245.295 13.1637C242.165 9.43132 236.827 4.81599 235.623 4.81599C235.382 4.81599 235.181 4.65546 235.181 4.45479C235.181 4.25412 234.66 3.97319 233.977 3.81266C233.335 3.65212 232.773 3.41132 232.773 3.21066C232.773 3.00999 232.171 2.72906 231.489 2.60866C230.767 2.44812 229.964 2.16719 229.763 1.96652C229.523 1.80599 227.676 1.28426 225.63 0.802656C221.977 -1.02222e-05 221.335 -1.02222e-05 110.969 -1.02222e-05H0V82.474ZM193.924 9.87279C194.085 9.99319 193.282 11.2373 192.158 12.6019C189.991 15.3309 189.63 15.9329 188.025 19.264C187.423 20.468 186.781 21.7523 186.58 22.1536C186.419 22.5148 185.898 24.3208 185.456 26.2071C184.252 31.0632 184.252 46.354 185.376 51.0496C186.179 54.3405 187.423 57.8723 187.864 58.1933C187.985 58.3137 188.265 58.8355 188.426 59.3973C188.587 59.9592 188.867 60.4809 188.988 60.6013C189.148 60.7217 189.71 61.5244 190.232 62.4073C191.516 64.5745 193.282 66.5009 197.777 70.5945C199.021 71.7985 199.061 71.8788 199.061 75.1296V78.5008L197.376 78.9824C196.413 79.2232 195.128 79.5443 194.446 79.6647C193.804 79.8252 192.158 80.1864 190.834 80.4673C188.466 81.0292 186.339 81.5108 179.998 82.8753C172.333 84.5208 167.637 86.2465 164.988 88.494C163.022 90.0993 160.533 92.708 160.533 93.1093C160.533 93.31 160.413 93.5107 160.252 93.5107C159.65 93.5107 157.844 96.8819 156.44 100.735C155.637 102.822 155.597 103.945 155.436 124.293L155.236 145.684H145.684H136.092L135.972 150.38L135.851 155.115H72.842H9.83267L9.71227 82.8753C9.67213 43.1433 9.71227 10.3945 9.83267 10.1136C9.95307 9.75239 28.7355 9.63199 101.858 9.63199C152.386 9.63199 193.804 9.75239 193.924 9.87279ZM225.228 10.7156C225.469 10.9965 226.031 11.2373 226.432 11.2373C227.195 11.2373 232.051 13.6855 233.014 14.5684C239.074 20.1469 241.201 23.8392 242.486 30.9027C243.047 34.1133 242.606 47.4376 241.843 50.1667C240.037 56.5077 235.061 62.4475 229.081 65.3371C222.178 68.6681 214.914 68.7083 208.051 65.4173C204.961 63.9324 202.713 62.2869 200.907 60.2401C200.426 59.7184 199.703 58.8756 199.222 58.3539C198.78 57.8321 198.058 56.7485 197.617 55.9057C197.215 55.0629 196.734 54.3004 196.613 54.18C196.493 54.0596 195.971 52.7352 195.489 51.2101C194.687 48.8423 194.526 47.3172 194.366 41.5781C194.165 34.8759 194.647 27.6519 195.369 26.7288C195.57 26.488 195.851 25.8057 196.011 25.2037C196.854 21.5516 202.031 15.5316 206.366 13.0835C211.021 10.4748 212.988 10.0333 219.208 10.1537C222.981 10.1939 224.867 10.3945 225.228 10.7156ZM212.506 77.0961C215.877 77.7784 224.827 77.4172 227.275 76.454C227.877 76.2132 227.957 76.454 227.957 78.9423V81.7115L225.87 83.7181C222.78 86.6077 221.496 87.2097 218.365 87.2097C215.275 87.2097 213.309 86.2064 210.419 83.1563C208.774 81.3904 208.693 81.2299 208.693 78.7416V76.1731L209.817 76.454C210.419 76.6145 211.623 76.8955 212.506 77.0961ZM203.075 89.5776C204.078 91.0625 207.69 93.912 210.098 95.116C217.402 98.8083 226.272 97.1227 232.653 90.8217C234.098 89.3769 235.543 88.2933 236.024 88.2933C236.787 88.2933 240.961 89.1763 246.419 90.4605C247.623 90.7816 250.071 91.3033 251.837 91.7047C258.98 93.2297 261.95 93.9923 263.275 94.5943C266.887 96.2397 269.455 99.0892 270.98 103.103C271.622 104.788 271.703 106.875 271.703 125.296V145.684H218.566C170.486 145.684 165.43 145.604 165.189 145.042C164.787 143.998 164.948 108.761 165.349 105.751C165.911 101.939 167.035 99.8517 170.165 96.8417C171.329 95.718 175.744 93.5107 176.747 93.5107C177.149 93.5107 178.393 93.2699 179.516 92.9488C180.68 92.6679 183.048 92.106 184.814 91.7047C186.58 91.3435 188.827 90.8619 189.831 90.6211C190.834 90.3803 192.801 89.9388 194.245 89.6177C195.69 89.2967 197.496 88.8953 198.259 88.7348C201.148 88.0124 202.111 88.2131 203.075 89.5776ZM291.167 156.199C291.288 156.721 291.368 158.848 291.288 160.935L291.167 164.747L218.446 164.868L145.684 164.948V160.132V155.316H218.325H290.967L291.167 156.199ZM281.656 189.309L281.736 203.877H278.325C274.953 203.877 274.873 203.877 274.472 202.754C274.03 201.469 272.786 198.941 272.505 198.66C272.385 198.54 271.783 197.697 271.181 196.734C269.576 194.285 266.325 191.195 263.194 189.148C261.75 188.225 260.385 187.423 260.184 187.423C260.024 187.383 259.141 187.061 258.258 186.62C257.375 186.179 256.372 185.817 256.051 185.817C255.73 185.817 254.726 185.536 253.843 185.215C251.676 184.453 243.569 184.453 241.402 185.215C240.519 185.536 239.435 185.817 238.954 185.817C238.512 185.817 237.79 186.098 237.349 186.419C236.947 186.74 236.345 187.021 236.064 187.021C234.86 187.021 229.844 190.473 227.275 193.001C224.707 195.489 221.937 199.583 220.733 202.553L220.252 203.877H198.981C179.115 203.877 177.751 203.837 177.51 203.155C177.028 201.71 175.583 198.821 174.821 197.697C172.774 194.807 169.242 191.035 168.56 191.035C168.359 191.035 168.159 190.914 168.159 190.714C168.159 190.352 162.821 187.021 162.259 187.021C162.018 187.021 161.296 186.74 160.694 186.419C160.052 186.098 159.249 185.817 158.888 185.817C158.527 185.817 157.563 185.536 156.761 185.215L155.316 184.613V179.597V174.58L218.446 174.66L281.535 174.781L281.656 189.309ZM56.7485 194.647C62.7284 195.53 68.1464 199.663 70.8755 205.362C73.6045 211.141 73.7651 224.666 71.1965 230.927C70.7551 231.931 70.3136 232.773 70.1531 232.773C69.9524 232.773 69.832 233.054 69.832 233.335C69.832 233.656 69.3504 234.459 68.7885 235.061C68.2267 235.663 67.5444 236.466 67.2635 236.787C65.8989 238.633 61.8856 240.961 58.1933 242.044C55.8656 242.767 50.8891 242.767 48.5613 242.084C46.4744 241.442 43.2236 239.917 43.0229 239.476C42.9427 239.315 42.6617 239.195 42.3808 239.195C41.6183 239.195 37.1635 234.258 36.2805 232.332C34.2739 228.158 34.1133 226.994 34.1133 218.526C34.1133 209.416 34.5949 207.128 37.0832 203.356C38.528 201.229 40.6952 198.66 41.0965 198.66C41.2169 198.66 41.6985 198.299 42.14 197.857C42.5815 197.416 43.2236 197.055 43.5447 197.055C43.8657 197.055 44.1467 196.854 44.1467 196.653C44.1467 196.413 44.3875 196.252 44.6684 196.252C44.9092 196.252 45.6717 195.971 46.354 195.61C48.6015 194.446 52.6951 194.085 56.7485 194.647ZM153.711 194.647C156.159 195.008 160.814 196.894 161.938 197.978C162.219 198.259 162.941 198.941 163.583 199.503C165.951 201.63 167.436 203.797 168.761 207.289C169.483 209.055 169.563 210.299 169.563 218.526C169.563 226.673 169.483 227.997 168.801 229.763C168.359 230.847 167.797 232.051 167.476 232.412C167.195 232.733 166.955 233.175 166.955 233.335C166.955 233.977 163.905 237.469 162.339 238.633C158.888 241.241 154.794 242.606 150.5 242.606C146.206 242.606 142.112 241.241 138.661 238.633C137.095 237.469 134.045 233.977 134.045 233.335C134.045 233.175 133.805 232.733 133.524 232.412C133.203 232.051 132.641 230.847 132.199 229.763C131.517 227.997 131.437 226.673 131.437 218.526C131.437 210.299 131.517 209.055 132.239 207.289C134.286 201.991 137.376 198.58 142.192 196.212C145.764 194.486 149.296 194.005 153.711 194.647ZM250.873 194.647C252.318 194.847 254.044 195.289 254.686 195.65C255.328 195.971 256.091 196.252 256.372 196.252C256.613 196.252 256.853 196.413 256.853 196.653C256.853 196.854 257.134 197.055 257.455 197.055C257.776 197.055 258.419 197.416 258.86 197.857C259.301 198.299 259.783 198.66 259.903 198.66C260.305 198.66 262.472 201.229 263.917 203.356C266.405 207.128 266.887 209.416 266.887 218.526C266.887 226.994 266.726 228.158 264.719 232.332C263.837 234.258 259.382 239.195 258.619 239.195C258.338 239.195 258.057 239.315 257.977 239.476C257.776 239.917 254.526 241.442 252.439 242.084C250.111 242.767 245.134 242.767 242.807 242.044C239.114 240.961 235.101 238.633 233.737 236.787C233.456 236.466 232.773 235.663 232.211 235.061C231.65 234.459 231.168 233.656 231.168 233.335C231.168 233.054 231.048 232.773 230.887 232.773C230.686 232.773 230.245 231.931 229.803 230.927C227.235 224.666 227.395 211.141 230.125 205.362C233.295 198.7 239.636 194.607 247.221 194.285C247.783 194.285 249.429 194.446 250.873 194.647ZM218.767 221.737C218.967 229.402 219.048 229.924 220.212 233.014C221.576 236.626 224.225 241.001 226.513 243.288L227.957 244.773V249.348V253.883L226.071 254.325C223.824 254.847 220.613 255.73 217.523 256.653C216.319 257.014 214.432 257.576 213.309 257.857C208.693 259.141 207.208 259.623 205.884 260.265C203.275 261.509 202.272 262.111 202.272 262.512C202.272 262.713 202.031 262.873 201.79 262.873C201.509 262.873 200.747 263.395 200.145 264.037L199.021 265.201L197.857 264.077C196.292 262.552 193.603 260.786 191.637 259.984C190.031 259.301 183.73 257.495 180.801 256.813C179.918 256.613 178.834 256.291 178.393 256.091C177.63 255.73 176.266 255.368 172.172 254.325C171.169 254.084 170.246 253.683 170.085 253.482C169.925 253.241 169.764 251.235 169.764 248.987V244.974L171.209 243.569C174.419 240.519 177.269 235.623 178.633 230.887C179.195 228.88 179.476 226.232 179.677 220.814L179.918 213.509L199.222 213.59L218.526 213.71L218.767 221.737ZM50.0061 252.037C53.2168 252.399 54.6616 252.358 57.5913 251.917C59.598 251.596 61.6047 251.195 62.1264 251.034C62.9692 250.753 63.0093 250.833 63.0093 253.562C63.0093 256.291 62.9692 256.452 61.4843 257.977C60.6816 258.82 59.1565 260.064 58.1933 260.706C56.6281 261.709 56.0261 261.87 53.3773 261.87C50.7687 261.87 50.1265 261.709 48.6817 260.786C46.7152 259.502 44.8289 257.696 44.1868 256.532C43.7052 255.649 43.5848 251.556 43.9861 251.114C44.1065 250.994 44.6283 251.034 45.15 251.235C45.6316 251.435 47.8389 251.797 50.0061 252.037ZM146.808 251.997C150.5 252.439 156.56 252.037 158.767 251.235C159.249 251.034 159.771 250.994 159.891 251.114C160.012 251.275 160.132 252.479 160.132 253.883C160.132 256.251 160.052 256.492 158.607 257.977C157.804 258.82 156.279 260.064 155.316 260.706C153.751 261.709 153.149 261.87 150.5 261.87C147.851 261.87 147.249 261.709 145.684 260.706C144.721 260.064 143.196 258.82 142.393 257.977C140.948 256.492 140.868 256.251 140.868 253.883C140.868 252.479 140.988 251.275 141.109 251.114C141.229 250.994 141.751 251.034 142.233 251.235C142.714 251.395 144.801 251.756 146.808 251.997ZM243.409 251.917C246.338 252.358 247.783 252.399 250.994 252.037C253.161 251.797 255.368 251.435 255.85 251.235C256.372 251.034 256.893 250.994 257.014 251.114C257.415 251.556 257.295 255.649 256.813 256.532C256.171 257.696 254.285 259.502 252.318 260.786C250.873 261.709 250.231 261.87 247.623 261.87C244.974 261.87 244.372 261.709 242.807 260.706C241.843 260.064 240.318 258.82 239.516 257.977C238.031 256.452 237.991 256.291 237.991 253.562C237.991 250.833 238.031 250.753 238.914 251.034C239.395 251.195 241.442 251.596 243.409 251.917ZM41.2972 267.449C45.3105 270.499 48.6416 271.703 53.3773 271.703C59.2368 271.663 64.2535 269.335 68.7083 264.519C70.1129 263.034 70.2735 262.954 71.5176 263.315C74.2065 264.158 76.8955 264.96 78.862 265.482C79.9857 265.803 82.1529 266.405 83.678 266.887C85.2432 267.328 87.2097 267.85 88.0927 268.091C92.2264 269.054 95.3167 271.663 96.4805 275.194C97.0023 276.8 97.1227 278.525 97.0424 284.184L96.922 291.167H53.3773H9.83267L9.8728 283.341C9.8728 276.198 9.95307 275.355 10.7156 273.91C12.2407 271.02 15.0901 268.933 18.662 268.051C19.5449 267.85 21.5516 267.328 23.0767 266.887C24.6419 266.405 26.8091 265.803 27.8927 265.482C29.0164 265.201 30.9027 264.639 32.1067 264.278C36.8424 262.833 36.6016 262.833 37.8859 264.358C38.528 265.121 40.0531 266.485 41.2972 267.449ZM138.621 267.609C141.189 269.495 142.152 270.017 144.881 270.94C149.015 272.345 155.637 271.743 159.369 269.616C161.336 268.492 164.868 265.683 165.911 264.358C167.155 262.793 166.714 262.793 173.175 264.639C179.837 266.566 181.202 266.967 183.008 267.529C184.011 267.85 185.055 268.091 185.336 268.091C186.219 268.091 189.951 269.977 191.075 270.98C191.637 271.502 192.52 272.826 193.081 273.91C194.005 275.836 194.045 276.278 194.045 283.542V291.167H150.5H106.955V283.542C106.955 276.278 106.995 275.836 107.919 273.91C108.48 272.826 109.363 271.502 109.925 270.98C111.049 269.977 114.781 268.091 115.664 268.091C115.945 268.091 116.989 267.85 117.992 267.529C119.758 266.967 120.641 266.726 127.825 264.639C134.166 262.793 133.684 262.793 135.209 264.559C135.972 265.402 137.497 266.766 138.621 267.609ZM232.573 264.8C233.817 266.204 236.987 268.693 238.793 269.656C243.85 272.345 250.392 272.425 256.051 269.816C258.057 268.893 261.75 266.004 262.994 264.358C264.077 262.913 264.639 262.833 266.686 263.676C267.127 263.877 268.291 264.238 269.295 264.479C272.064 265.201 274.833 265.964 277.923 266.887C279.489 267.368 281.455 267.89 282.338 268.091C285.83 268.853 288.759 270.98 290.284 273.91C291.047 275.355 291.127 276.198 291.127 283.341L291.167 291.167H247.623H204.078L203.958 284.184C203.837 276.117 204.239 274.231 206.606 271.622C207.971 270.137 211.543 268.091 212.827 268.091C213.108 268.091 214.151 267.85 215.155 267.529C217.081 266.927 219.73 266.164 224.345 264.84C225.991 264.398 228.078 263.756 228.961 263.475C230.767 262.873 230.927 262.913 232.573 264.8Z" fill="#53D690"/>
<path d="M19.4241 19.7848C19.3439 20.0657 19.3037 22.273 19.3439 24.7212L19.4643 29.0957H24.2803H29.0963V24.2797V19.4637L24.3605 19.3433C20.7084 19.263 19.5847 19.3433 19.4241 19.7848Z" fill="#53D690"/>
<path d="M38.9297 24.2802V29.2969H58.1937H77.4577V24.2802V19.2635H58.1937H38.9297V24.2802Z" fill="#53D690"/>
<path d="M19.344 43.6256L19.4644 48.3613H24.2804H29.0964L29.2168 43.6256L29.3372 38.93H24.2804H19.2236L19.344 43.6256Z" fill="#53D690"/>
<path d="M38.9297 43.7445V48.5605H58.1937H77.4577V43.7445V38.9285H58.1937H38.9297V43.7445Z" fill="#53D690"/>
<path d="M115.182 56.1863C114.58 56.5475 113.096 57.1896 108.962 58.9956C107.878 59.4772 106.072 60.2799 104.948 60.8016C102.902 61.7648 101.617 62.3267 98.1258 63.8116C97.0422 64.2932 95.7579 64.8149 95.3164 65.0156C94.875 65.2163 93.3499 65.8584 91.9051 66.4203C90.4603 66.9821 88.9352 67.6243 88.4938 67.8249C88.0523 67.9855 87.3299 68.2664 86.8884 68.3467C86.447 68.4671 84.8416 69.0289 83.2764 69.5507C69.7114 74.3265 54.9022 76.9753 39.0495 77.3767L29.4978 77.6576L29.3774 106.513C29.2971 129.028 29.1767 135.49 28.7754 135.731C28.5346 135.891 26.247 136.052 23.7587 136.052H19.2236L19.344 140.747L19.4644 145.483L72.9622 145.603L126.42 145.684V140.868V136.052H122.045C119.637 136.052 117.39 135.931 117.029 135.811C116.467 135.57 116.386 131.677 116.386 95.6775C116.386 73.7245 116.266 55.7849 116.106 55.8251C115.905 55.8251 115.504 55.9856 115.182 56.1863ZM106.554 135.53C106.353 136.092 99.0087 136.292 97.7646 135.811C97.2027 135.57 97.1224 132.52 97.1224 105.189V74.8483L98.8482 74.0857C99.7712 73.6844 101.256 73.0423 102.139 72.6409C103.022 72.2797 104.387 71.6777 105.149 71.3165L106.554 70.6744L106.674 102.861C106.714 120.56 106.674 135.289 106.554 135.53ZM87.4904 107.115C87.4904 132.68 87.4102 135.57 86.8483 135.811C86.0456 136.132 78.9019 136.132 78.0992 135.811C77.5374 135.57 77.4571 132.841 77.4571 108.761C77.4571 87.8113 77.5775 81.8716 77.9788 81.5907C78.2196 81.39 79.825 80.8281 81.4704 80.3064C83.1159 79.8248 84.8416 79.2629 85.2831 79.0623C85.7246 78.8616 86.4068 78.7011 86.8082 78.7011C87.4503 78.6609 87.4904 80.2663 87.4904 107.115ZM68.1462 109.724C68.2264 129.991 68.1462 135.45 67.7448 135.731C67.1428 136.092 59.7583 136.172 58.8352 135.811C58.2734 135.57 58.1931 133.001 58.1931 110.527V85.5237L59.5175 85.2829C60.1998 85.1625 62.1663 84.8013 63.8118 84.5204C65.4572 84.1993 67.1027 83.9987 67.4238 84.0388C67.9455 84.0789 68.0258 87.2896 68.1462 109.724ZM48.3604 111.41V135.851H43.7451H39.1298V111.57V87.2896L43.3438 87.0889C45.6715 86.9685 47.7584 86.8883 47.9591 86.8883C48.24 86.9284 48.3604 95.3965 48.3604 111.41Z" fill="#53D690"/>
</g>
<defs>
<clipPath id="clip0_1139_4865">
<rect width="301" height="301" fill="white"/>
</clipPath>
</defs>
</svg>
