<svg width="19" height="19" viewBox="0 0 19 19" fill="none" xmlns="http://www.w3.org/2000/svg">
<g clip-path="url(#clip0_1135_4700)">
<path fill-rule="evenodd" clip-rule="evenodd" d="M11.8571 11.3476C12.2157 11.8183 12.5968 11.8631 12.5295 12.4011C11.7899 12.67 12.2606 12.4235 11.3192 11.7959C10.7589 12.3338 10.2434 12.3786 9.41407 12.67C9.4589 13.8579 9.43648 13.6338 9.07787 13.7683C8.71926 13.589 8.80891 13.6338 8.80891 12.6252C7.77791 12.4683 7.57619 12.1993 6.81414 11.8856C6.34346 12.2666 6.29864 12.6252 5.78313 12.5355C5.559 11.908 6.02968 11.9528 6.38829 11.3028C5.91761 10.8546 5.71589 10.1822 5.58141 9.4425L4.41593 9.37526V8.94941C4.77454 8.7701 5.0435 8.83734 5.53659 8.83734C5.76072 7.76151 5.98485 7.64944 6.27622 6.84257C6.11933 6.66326 5.53659 6.19259 5.64865 5.96846C5.98485 5.22882 6.09692 5.99087 6.81414 6.3943C7.66584 5.81156 7.82273 5.96845 8.74167 5.5426C8.69685 4.19781 8.62961 4.46677 9.05546 4.46677C9.54855 4.46677 9.34683 5.04951 9.34683 5.60984C10.4227 5.83398 10.5123 6.01328 11.3416 6.34948C11.9244 5.92362 11.9244 5.56502 12.2381 5.6995C12.9778 6.01328 12.1933 6.25983 11.7899 6.93222C12.3278 7.51497 12.3502 7.98564 12.664 8.81493C14.0088 8.77011 13.7398 8.68045 13.7622 9.1063C13.7622 9.53215 14.0536 9.39768 12.6416 9.42009C12.4399 10.4511 12.2381 10.608 11.9019 11.3925L11.8571 11.3476ZM12.5071 6.86498C12.8881 6.37189 13.4709 6.0581 12.7985 5.34088C12.1261 4.62366 11.7451 4.95986 11.364 5.56502C10.7365 5.43054 10.602 5.20641 9.95199 5.09434L9.79509 3.95126C8.47272 3.48059 8.11411 3.81679 8.11411 5.07192L6.81414 5.65467C6.36587 5.25123 6.02968 4.64607 5.33487 5.34088C4.52799 6.12534 5.20039 6.3943 5.53659 6.95463L5.08832 8.23218C4.16938 8.27701 3.74353 8.14254 3.78836 9.21837C3.83318 10.1597 4.23662 10.0253 5.0435 10.0253L5.60383 11.3028C5.24522 11.8183 4.61765 12.0649 5.29004 12.8045C6.05209 13.6338 6.36588 12.9166 6.92621 12.6028L8.18134 13.051C8.24858 13.9924 8.06928 14.4182 9.18994 14.351C10.1313 14.2838 9.9744 13.8803 10.0192 13.0959L11.2744 12.5355C11.7675 12.8942 12.0813 13.5217 12.7985 12.8269C13.4709 12.1769 13.1347 11.7511 12.5743 11.3701C12.7088 10.7649 12.933 10.6304 13.045 9.958L14.1881 9.82352C14.8381 7.98564 13.6278 8.16495 13.0898 8.16495L12.5071 6.86498Z" fill="#53D690"/>
<mask id="mask0_1135_4700" style="mask-type:luminance" maskUnits="userSpaceOnUse" x="3" y="3" width="12" height="12">
<path fill-rule="evenodd" clip-rule="evenodd" d="M11.8571 11.3476C12.2157 11.8183 12.5968 11.8631 12.5295 12.4011C11.7899 12.67 12.2606 12.4235 11.3192 11.7959C10.7589 12.3338 10.2434 12.3786 9.41407 12.67C9.4589 13.8579 9.43648 13.6338 9.07787 13.7683C8.71926 13.589 8.80891 13.6338 8.80891 12.6252C7.77791 12.4683 7.57619 12.1993 6.81414 11.8856C6.34346 12.2666 6.29864 12.6252 5.78313 12.5355C5.559 11.908 6.02968 11.9528 6.38829 11.3028C5.91761 10.8546 5.71589 10.1822 5.58141 9.4425L4.41593 9.37526V8.94941C4.77454 8.7701 5.0435 8.83734 5.53659 8.83734C5.76072 7.76151 5.98485 7.64944 6.27622 6.84257C6.11933 6.66326 5.53659 6.19259 5.64865 5.96846C5.98485 5.22882 6.09692 5.99087 6.81414 6.3943C7.66584 5.81156 7.82273 5.96845 8.74167 5.5426C8.69685 4.19781 8.62961 4.46677 9.05546 4.46677C9.54855 4.46677 9.34683 5.04951 9.34683 5.60984C10.4227 5.83398 10.5123 6.01328 11.3416 6.34948C11.9244 5.92362 11.9244 5.56502 12.2381 5.6995C12.9778 6.01328 12.1933 6.25983 11.7899 6.93222C12.3278 7.51497 12.3502 7.98564 12.664 8.81493C14.0088 8.77011 13.7398 8.68045 13.7622 9.1063C13.7622 9.53215 14.0536 9.39768 12.6416 9.42009C12.4399 10.4511 12.2381 10.608 11.9019 11.3925L11.8571 11.3476ZM12.5071 6.86498C12.8881 6.37189 13.4709 6.0581 12.7985 5.34088C12.1261 4.62366 11.7451 4.95986 11.364 5.56502C10.7365 5.43054 10.602 5.20641 9.95199 5.09434L9.79509 3.95126C8.47272 3.48059 8.11411 3.81679 8.11411 5.07192L6.81414 5.65467C6.36587 5.25123 6.02968 4.64607 5.33487 5.34088C4.52799 6.12534 5.20039 6.3943 5.53659 6.95463L5.08832 8.23218C4.16938 8.27701 3.74353 8.14254 3.78836 9.21837C3.83318 10.1597 4.23662 10.0253 5.0435 10.0253L5.60383 11.3028C5.24522 11.8183 4.61765 12.0649 5.29004 12.8045C6.05209 13.6338 6.36588 12.9166 6.92621 12.6028L8.18134 13.051C8.24858 13.9924 8.06928 14.4182 9.18994 14.351C10.1313 14.2838 9.9744 13.8803 10.0192 13.0959L11.2744 12.5355C11.7675 12.8942 12.0813 13.5217 12.7985 12.8269C13.4709 12.1769 13.1347 11.7511 12.5743 11.3701C12.7088 10.7649 12.933 10.6304 13.045 9.958L14.1881 9.82352C14.8381 7.98564 13.6278 8.16495 13.0898 8.16495L12.5071 6.86498Z" fill="white"/>
</mask>
<g mask="url(#mask0_1135_4700)">
<path d="M11.8574 11.3485L13.4423 9.76369L10.0746 12.7069L11.8574 11.3485ZM12.5298 12.402L13.2958 14.5083L14.5838 14.04L14.7538 12.68L12.5298 12.402ZM11.3195 11.7968L12.5628 9.93192L11.0655 8.93372L9.76728 10.1799L11.3195 11.7968ZM9.41434 12.6709L8.67137 10.5563L7.1123 11.1041L7.17461 12.7554L9.41434 12.6709ZM9.07814 13.7692L8.07579 15.7739L8.94998 16.211L9.86512 15.8678L9.07814 13.7692ZM8.80918 12.6261H11.0505V10.7L9.14637 10.4103L8.80918 12.6261ZM6.81441 11.8865L7.66779 9.81397L6.43794 9.30756L5.40417 10.1444L6.81441 11.8865ZM5.7834 12.5364L3.67266 13.2903L4.11211 14.5207L5.39937 14.7446L5.7834 12.5364ZM6.38856 11.3037L8.35101 12.3864L9.18608 10.8729L7.9343 9.6807L6.38856 11.3037ZM5.58168 9.44343L7.78685 9.04249L7.47138 7.3074L5.71077 7.20583L5.58168 9.44343ZM4.4162 9.37618H2.17488V11.4919L4.28711 11.6138L4.4162 9.37618ZM4.4162 8.95034L3.41385 6.94564L2.17488 7.56512V8.95034H4.4162ZM5.53686 8.83826V11.0796H7.35936L7.73107 9.2954L5.53686 8.83826ZM6.27649 6.8435L8.38457 7.60475L8.83335 6.36198L7.96326 5.36758L6.27649 6.8435ZM5.64892 5.96939L7.65362 6.97173L7.67218 6.93462L7.68934 6.89685L5.64892 5.96939ZM6.81441 6.39523L5.71558 8.3487L6.93005 9.03185L8.08005 8.24501L6.81441 6.39523ZM8.74194 5.54353L9.68433 7.5771L11.0315 6.95281L10.9821 5.46886L8.74194 5.54353ZM9.3471 5.61077H7.10578V7.43328L8.88997 7.80498L9.3471 5.61077ZM11.3419 6.35041L10.4998 8.42752L11.6566 8.89646L12.6643 8.16003L11.3419 6.35041ZM12.2384 5.70043L11.3555 7.76054L11.3631 7.76375L12.2384 5.70043ZM11.7902 6.93315L9.86822 5.78L9.00441 7.21969L10.1432 8.4534L11.7902 6.93315ZM12.6643 8.81586L10.568 9.60905L11.1357 11.1094L12.739 11.0559L12.6643 8.81586ZM13.7625 9.10722H16.0039V9.04829L16.0008 8.98943L13.7625 9.10722ZM12.6419 9.42102L12.6063 7.17998L10.7909 7.2088L10.4423 8.99066L12.6419 9.42102ZM11.9022 11.3934L10.3174 12.9782L12.6583 15.3191L13.9623 12.2763L11.9022 11.3934ZM12.5074 6.86591L10.7339 5.49546L9.91299 6.55773L10.4622 7.78273L12.5074 6.86591ZM11.3643 5.56595L10.8947 7.75751L12.4264 8.08573L13.261 6.76015L11.3643 5.56595ZM9.95226 5.09527L7.73175 5.40004L7.95482 7.02528L9.57144 7.304L9.95226 5.09527ZM9.79536 3.95219L12.0159 3.64742L11.8306 2.29754L10.547 1.84064L9.79536 3.95219ZM8.11438 5.07285L9.03121 7.11808L10.3557 6.52434V5.07285H8.11438ZM6.81441 5.6556L5.31505 7.32156L6.39968 8.29773L7.73124 7.70082L6.81441 5.6556ZM5.33514 5.34181L6.89751 6.94882L6.90883 6.93782L6.91999 6.92666L5.33514 5.34181ZM5.53686 6.95556L7.65177 7.69764L8.00016 6.70472L7.45877 5.80241L5.53686 6.95556ZM5.08859 8.23311L5.1978 10.4718L6.70417 10.3983L7.2035 8.97518L5.08859 8.23311ZM3.78863 9.2193L1.54921 9.31261L1.54984 9.32591L3.78863 9.2193ZM5.04377 10.0262L7.09634 9.12592L6.50816 7.78485H5.04377V10.0262ZM5.6041 11.3037L7.44401 12.5837L8.1609 11.5531L7.65667 10.4035L5.6041 11.3037ZM5.29031 12.8054L3.63185 14.3131L3.63997 14.3219L5.29031 12.8054ZM6.92648 12.6037L7.68032 10.4929L6.72056 10.1502L5.83136 10.6481L6.92648 12.6037ZM8.18161 13.0519L10.4173 12.8923L10.3131 11.4332L8.93545 10.9412L8.18161 13.0519ZM9.19021 14.3519L9.32445 16.5892L9.33718 16.5884L9.3499 16.5875L9.19021 14.3519ZM10.0195 13.0968L9.10582 11.0501L7.85968 11.6065L7.78183 12.9689L10.0195 13.0968ZM11.2747 12.5364L12.593 10.7238L11.5446 9.96141L10.361 10.4898L11.2747 12.5364ZM12.7988 12.8278L11.241 11.2163L11.2393 11.218L12.7988 12.8278ZM12.5746 11.371L10.3867 10.8847L10.0568 12.3692L11.3143 13.2244L12.5746 11.371ZM13.0453 9.95893L12.7834 7.73296L11.1113 7.92969L10.8345 9.59046L13.0453 9.95893ZM14.1884 9.82445L14.4503 12.0504L15.8362 11.8874L16.3015 10.5717L14.1884 9.82445ZM13.0901 8.16587L11.0449 9.0827L11.6387 10.4072H13.0901V8.16587ZM10.0746 12.7069C10.2725 12.9666 10.4654 13.1556 10.6005 13.2806C10.6516 13.328 10.7302 13.3984 10.7396 13.4069C10.7689 13.4335 10.7584 13.4251 10.7358 13.4015C10.6819 13.3453 10.512 13.1567 10.3984 12.846C10.2821 12.5277 10.2888 12.2599 10.3058 12.124L14.7538 12.68C14.8044 12.2751 14.7887 11.7999 14.6087 11.3073C14.4314 10.8222 14.1564 10.492 13.9708 10.2985C13.8824 10.2063 13.7994 10.1303 13.7514 10.0868C13.6835 10.0252 13.6799 10.0229 13.646 9.99148C13.6108 9.95889 13.6217 9.96587 13.6402 9.99021L10.0746 12.7069ZM11.7639 10.2956C11.6764 10.3274 11.6562 10.3332 11.6651 10.3306C11.6729 10.3283 11.7066 10.3184 11.7579 10.3075C11.8085 10.2967 11.8978 10.2803 12.0141 10.2726C12.1329 10.2648 12.2937 10.2652 12.4814 10.2967C12.6754 10.3292 12.8712 10.3904 13.0597 10.4832C13.426 10.6634 13.6366 10.9016 13.6926 10.966C13.7239 11.002 13.7433 11.0276 13.7363 11.0186C13.7336 11.0152 13.731 11.0117 13.7219 10.9999C13.7144 10.9901 13.7031 10.9754 13.6904 10.9591C13.6355 10.8885 13.5529 10.7855 13.4419 10.6664C13.2146 10.4224 12.932 10.1781 12.5628 9.93192L10.0762 13.6617C10.1777 13.7293 10.1892 13.7512 10.1616 13.7215C10.1504 13.7095 10.1439 13.7007 10.1518 13.7109C10.1807 13.7481 10.1449 13.7023 10.1914 13.7623C10.2103 13.7868 10.2536 13.8425 10.308 13.9052C10.4102 14.0228 10.6639 14.3002 11.0803 14.5051C11.5361 14.7294 11.9758 14.7675 12.308 14.7456C12.5948 14.7268 12.8291 14.6611 12.943 14.6272C13.0714 14.589 13.1983 14.5438 13.2958 14.5083L11.7639 10.2956ZM9.76728 10.1799C9.74411 10.2022 9.73892 10.2034 9.74534 10.1995C9.74887 10.1974 9.73396 10.2075 9.67228 10.2309C9.59793 10.2591 9.50496 10.289 9.32242 10.3453C9.15603 10.3966 8.92654 10.4667 8.67137 10.5563L10.1573 14.7855C10.512 14.6609 11.8471 14.3973 12.8717 13.4137L9.76728 10.1799ZM7.17461 12.7554C7.18644 13.0689 7.19073 13.2194 7.18993 13.3036C7.18956 13.3426 7.18816 13.3135 7.19556 13.2491C7.20186 13.1942 7.2258 13.0036 7.32393 12.7644C7.43838 12.4854 7.63956 12.175 7.96054 11.9202C8.24889 11.6914 8.52094 11.5999 8.60987 11.5717C8.65919 11.556 8.76054 11.5298 8.63329 11.5629C8.55976 11.582 8.43756 11.6157 8.29116 11.6706L9.86512 15.8678C9.80837 15.8891 9.76532 15.9003 9.76149 15.9013C9.70392 15.9162 9.86551 15.8762 9.96666 15.8441C10.1075 15.7994 10.4229 15.6888 10.7474 15.4313C11.1044 15.148 11.3343 14.7994 11.4712 14.4658C11.678 13.9617 11.6713 13.4634 11.6724 13.3459C11.6744 13.1338 11.6647 12.8669 11.6541 12.5864L7.17461 12.7554ZM10.0805 11.7645C10.0204 11.7344 10.0362 11.7417 10.0615 11.7559C10.0895 11.7716 10.2147 11.8422 10.3608 11.97C10.5275 12.1158 10.6977 12.3147 10.8291 12.5704C10.9529 12.8113 11.001 13.0231 11.0213 13.1475C11.0314 13.2095 11.0359 13.258 11.038 13.2866C11.0401 13.3154 11.0405 13.3336 11.0406 13.3364C11.0406 13.3365 11.0403 13.3176 11.0417 13.2497C11.0441 13.1296 11.0505 12.9076 11.0505 12.6261H6.56786C6.56786 12.8488 6.56311 12.9995 6.55991 13.1603C6.55819 13.2462 6.54655 13.5598 6.59715 13.8698C6.675 14.3466 6.90123 14.8993 7.4089 15.3435C7.59698 15.5081 7.77405 15.6124 7.86581 15.664C7.95478 15.714 8.04627 15.7591 8.07579 15.7739L10.0805 11.7645ZM9.14637 10.4103C8.83096 10.3623 8.72473 10.3143 8.64622 10.2783C8.5593 10.2383 8.50024 10.2062 8.31282 10.1116C8.1461 10.0274 7.93345 9.92336 7.66779 9.81397L5.96103 13.959C6.0764 14.0065 6.17472 14.0537 6.29238 14.1131C6.38932 14.162 6.58802 14.2658 6.77566 14.352C7.24627 14.5681 7.7564 14.733 8.472 14.8419L9.14637 10.4103ZM5.40417 10.1444C5.16374 10.339 4.9877 10.5236 4.87308 10.649C4.84576 10.6789 4.82075 10.7067 4.80251 10.7271C4.78209 10.7498 4.77098 10.7622 4.76073 10.7734C4.73879 10.7975 4.752 10.7817 4.78278 10.7528C4.8543 10.6858 5.06704 10.5025 5.41107 10.3921C5.75687 10.2812 6.03883 10.3059 6.16743 10.3283L5.39937 14.7446C5.78573 14.8118 6.2666 14.8253 6.7805 14.6605C7.29264 14.4961 7.64265 14.2162 7.84865 14.0231C7.94667 13.9312 8.02642 13.845 8.07382 13.793C8.09824 13.7662 8.1225 13.7391 8.13859 13.7212C8.15686 13.7008 8.1695 13.6868 8.1814 13.6737C8.22367 13.6275 8.22974 13.6244 8.22464 13.6285L5.40417 10.1444ZM7.89415 11.7826C7.9109 11.8295 8.02027 12.1473 7.93355 12.5959C7.84096 13.0748 7.58977 13.3656 7.52873 13.433C7.50744 13.4565 7.49406 13.4685 7.54549 13.4183C7.58235 13.3823 7.66099 13.3061 7.7454 13.2162C7.93019 13.0193 8.14993 12.7509 8.35101 12.3864L4.42611 10.221C4.43479 10.2053 4.44607 10.1878 4.45871 10.171C4.47102 10.1546 4.47936 10.1459 4.47699 10.1484C4.47035 10.1555 4.46074 10.1652 4.41529 10.2096C4.38443 10.2397 4.29471 10.3262 4.20618 10.4239C4.01066 10.6398 3.6614 11.0777 3.53239 11.7451C3.40926 12.3821 3.54384 12.9296 3.67266 13.2903L7.89415 11.7826ZM7.9343 9.6807C7.99412 9.73768 7.98367 9.75993 7.94133 9.65362C7.89502 9.53734 7.84288 9.35064 7.78685 9.04249L3.37652 9.84437C3.51934 10.6299 3.81226 11.9453 4.84282 12.9267L7.9343 9.6807ZM5.71077 7.20583L4.54528 7.13859L4.28711 11.6138L5.4526 11.681L5.71077 7.20583ZM6.65752 9.37618V8.95034H2.17488V9.37618H6.65752ZM5.41855 10.955C5.38759 10.9705 5.34951 10.9873 5.30504 11.0033C5.26031 11.0194 5.21458 11.0326 5.16917 11.0429C5.07698 11.0639 5.01126 11.0668 4.99836 11.0672C4.99359 11.0674 4.99911 11.067 5.02186 11.0674C5.04598 11.0678 5.076 11.0688 5.12584 11.0705C5.21619 11.0737 5.36685 11.0796 5.53686 11.0796V6.59695C5.46032 6.59695 5.39245 6.59446 5.28248 6.59062C5.19013 6.58739 5.02687 6.58133 4.85384 6.58691C4.43698 6.60036 3.94665 6.67924 3.41385 6.94564L5.41855 10.955ZM7.73107 9.2954C7.80957 8.91858 7.86987 8.78122 7.91965 8.67239C7.97236 8.55715 8.1975 8.1228 8.38457 7.60475L4.16841 6.08225C4.06411 6.37107 4.0315 6.39619 3.84327 6.80766C3.65211 7.22554 3.48828 7.68212 3.34265 8.38115L7.73107 9.2954ZM7.96326 5.36758C7.8887 5.28237 7.81545 5.20922 7.77792 5.17201C7.7367 5.13114 7.68736 5.08348 7.65865 5.05557C7.58404 4.98305 7.54825 4.94661 7.52781 4.92389C7.48974 4.88159 7.57095 4.96042 7.66064 5.13069C7.70799 5.22057 7.80484 5.42312 7.85076 5.71179C7.8998 6.02003 7.89715 6.48467 7.65362 6.97173L3.64423 4.96704C3.10457 6.04635 3.57926 7.0009 3.69464 7.21993C3.86698 7.54708 4.08267 7.79682 4.19589 7.92262C4.32673 8.068 4.45905 8.19685 4.53433 8.27002C4.65595 8.38823 4.62764 8.36274 4.58973 8.31942L7.96326 5.36758ZM7.68934 6.89685C7.70056 6.87218 7.66239 6.96509 7.56319 7.09819C7.47544 7.21592 7.19698 7.56098 6.66947 7.76181C6.04709 7.99876 5.46343 7.89538 5.07519 7.7249C4.76373 7.58814 4.58075 7.41196 4.56257 7.39506C4.52966 7.36446 4.51466 7.34624 4.57374 7.41011C4.61411 7.45377 4.69711 7.54429 4.79215 7.63934C4.99047 7.83766 5.29463 8.11192 5.71558 8.3487L7.91324 4.44175C7.97557 4.47682 7.99677 4.50454 7.96185 4.46963C7.94028 4.44805 7.91908 4.42529 7.86447 4.36624C7.82855 4.32742 7.72775 4.2171 7.61499 4.11225C7.51696 4.02111 7.26009 3.78855 6.87746 3.62053C6.41803 3.41879 5.76591 3.30929 5.07454 3.57251C4.47804 3.7996 4.13006 4.20332 3.96903 4.41937C3.79655 4.65079 3.68134 4.88168 3.6085 5.04192L7.68934 6.89685ZM8.08005 8.24501C8.22779 8.14392 8.30677 8.10137 8.34235 8.08371C8.37064 8.06966 8.39595 8.05878 8.46173 8.03685C8.62061 7.98389 9.07534 7.85932 9.68433 7.5771L7.79956 3.50996C7.48961 3.65359 7.40642 3.6635 7.04419 3.78425C6.5863 3.93688 6.1467 4.13635 5.54877 4.54546L8.08005 8.24501ZM10.9821 5.46886C10.9725 5.18167 10.9543 4.78901 10.9521 4.72673C10.9493 4.65052 10.9505 4.64691 10.9498 4.67308C10.9493 4.6893 10.9477 4.73853 10.9396 4.80746C10.932 4.87246 10.9139 4.99904 10.8659 5.15627C10.7597 5.50373 10.4627 6.11358 9.74444 6.46583C9.18146 6.74195 8.67474 6.68347 8.64318 6.68096C8.59074 6.67679 8.55285 6.6713 8.56749 6.67325C8.65232 6.68461 8.49687 6.66382 8.59271 6.67666C8.60616 6.67846 8.62517 6.68097 8.64724 6.68365C8.74025 6.69498 8.88196 6.70902 9.05573 6.70902V2.22638C9.12303 2.22638 9.17369 2.23201 9.18904 2.23388C9.29276 2.24651 9.07706 2.21867 8.9983 2.21241C8.91386 2.2057 8.36564 2.14932 7.77052 2.4412C7.02018 2.80921 6.70042 3.44847 6.57884 3.84636C6.47883 4.17368 6.47122 4.46043 6.46875 4.55123C6.46533 4.67721 6.46915 4.80177 6.47233 4.88946C6.48198 5.15497 6.48903 5.23299 6.50187 5.6182L10.9821 5.46886ZM9.05573 6.70902C8.90287 6.70902 8.65204 6.68713 8.36202 6.56862C8.05347 6.44254 7.77236 6.23572 7.55532 5.96291C7.1637 5.47066 7.14991 4.98168 7.14802 4.94539C7.14431 4.87389 7.15131 4.84332 7.13746 5.00819C7.12853 5.11453 7.10578 5.35755 7.10578 5.61077H11.5885C11.5885 5.58383 11.5909 5.54389 11.6044 5.38337C11.613 5.28138 11.6396 5.00006 11.6247 4.71284C11.6116 4.46081 11.5558 3.79113 11.0633 3.1721C10.4688 2.4249 9.6452 2.22638 9.05573 2.22638V6.70902ZM8.88997 7.80498C9.30314 7.89106 9.4405 7.94874 9.53281 7.98943C9.62281 8.02911 9.68239 8.05966 9.86743 8.14784C10.0334 8.22689 10.2375 8.32118 10.4998 8.42752L12.184 4.27329C12.0317 4.21153 11.9136 4.15733 11.7959 4.1012C11.6972 4.0542 11.5117 3.96289 11.3411 3.8877C10.9123 3.69866 10.4669 3.55462 9.80423 3.41657L8.88997 7.80498ZM12.6643 8.16003C12.9358 7.96164 13.145 7.76624 13.3085 7.59416C13.3875 7.511 13.4519 7.43737 13.4972 7.38482C13.5166 7.36231 13.541 7.3337 13.5498 7.32344C13.5631 7.30787 13.5666 7.30394 13.5662 7.30435C13.5656 7.30501 13.5536 7.31856 13.5337 7.33892C13.5138 7.35927 13.4785 7.39413 13.4299 7.43583C13.3355 7.51676 13.1524 7.6572 12.8827 7.76545C12.5922 7.88201 12.2799 7.92981 11.9736 7.90787C11.6894 7.88752 11.4755 7.81193 11.3555 7.76054L13.1213 3.64033C12.6865 3.45399 11.9856 3.29531 11.2132 3.60529C10.6202 3.84327 10.2667 4.26908 10.2159 4.32623C10.0132 4.55419 10.0654 4.50722 10.0195 4.54078L12.6643 8.16003ZM11.3631 7.76375C11.3621 7.76331 11.2323 7.71084 11.0647 7.57935C10.8933 7.44489 10.5638 7.1334 10.3968 6.5961C10.2183 6.02175 10.3253 5.51719 10.4523 5.2055C10.5621 4.93593 10.6997 4.77322 10.7211 4.74745C10.7521 4.71031 10.7665 4.69832 10.7175 4.74748C10.6918 4.77325 10.5983 4.86547 10.5245 4.94165C10.3585 5.11298 10.098 5.39704 9.86822 5.78L13.7121 8.0863C13.684 8.13306 13.6729 8.13416 13.7444 8.06035C13.7893 8.01395 13.8115 7.99306 13.8911 7.91324C13.9474 7.85682 14.0568 7.74677 14.1648 7.61717C14.2446 7.52143 15.0846 6.57537 14.6775 5.26563C14.4863 4.65059 14.1 4.2631 13.8315 4.05247C13.5668 3.84481 13.2997 3.71599 13.1138 3.63711L11.3631 7.76375ZM10.1432 8.4534C10.1618 8.47349 10.1719 8.48626 10.1764 8.49231C10.1807 8.49808 10.1824 8.50083 10.183 8.50184C10.1836 8.50297 10.1861 8.50726 10.1909 8.51748C10.196 8.52836 10.2044 8.54752 10.2168 8.57995C10.2469 8.65903 10.2757 8.7484 10.3373 8.94006C10.3935 9.11476 10.4682 9.34531 10.568 9.60905L14.7606 8.02268C14.7035 7.87177 14.6577 7.73249 14.6046 7.56749C14.557 7.41946 14.4877 7.19925 14.4058 6.98415C14.2128 6.47758 13.9361 5.95344 13.4371 5.41291L10.1432 8.4534ZM12.739 11.0559C13.0986 11.0439 13.3669 11.0282 13.5099 11.0212C13.5932 11.0171 13.6069 11.0174 13.5949 11.0174C13.5858 11.0174 13.5459 11.0173 13.4879 11.0127C13.4338 11.0085 13.3217 10.9974 13.1796 10.9629C12.8874 10.8918 12.2606 10.6643 11.8449 9.98092C11.5005 9.41472 11.5288 8.87465 11.5298 8.82937C11.531 8.7713 11.5348 8.7288 11.5337 8.74231C11.5324 8.75855 11.534 8.73787 11.5318 8.76566C11.5308 8.77871 11.5293 8.79755 11.5279 8.81947C11.5216 8.91273 11.5153 9.05328 11.5243 9.22503L16.0008 8.98943C16.0042 9.05471 16.0014 9.10491 16.0003 9.12173C15.9931 9.22769 16.0096 9.00947 16.0114 8.92211C16.0134 8.82605 16.037 8.24694 15.6746 7.65123C15.241 6.93835 14.583 6.69089 14.239 6.60722C13.9393 6.53433 13.6788 6.53482 13.5988 6.53475C13.4862 6.53465 13.3712 6.54 13.2903 6.54396C13.1047 6.55306 12.9024 6.56536 12.5896 6.57579L12.739 11.0559ZM11.5212 9.10722C11.5212 9.29235 11.5375 9.44485 11.5527 9.55353C11.5594 9.60136 11.5667 9.64508 11.5678 9.65174C11.5715 9.67451 11.5642 9.63248 11.5582 9.57847C11.5526 9.5282 11.5365 9.37239 11.5542 9.16962C11.573 8.95408 11.6353 8.61731 11.8433 8.26002C12.3066 7.46437 13.0509 7.26951 13.258 7.22472C13.384 7.19749 13.4807 7.18923 13.5189 7.1864C13.5421 7.18469 13.5596 7.1839 13.5697 7.18353C13.5799 7.18315 13.5861 7.18306 13.5867 7.18305C13.5875 7.18304 13.5851 7.18308 13.5785 7.18307C13.572 7.18306 13.563 7.18301 13.5506 7.18288C13.5247 7.18261 13.4934 7.18212 13.4493 7.1814C13.2723 7.1785 12.9966 7.17379 12.6063 7.17998L12.6775 11.662C12.9932 11.657 13.2106 11.6607 13.376 11.6634C13.4494 11.6646 13.5544 11.6665 13.6473 11.6653C13.7064 11.6645 13.9408 11.6633 14.2054 11.6061C14.4644 11.5501 15.2385 11.3377 15.7172 10.5155C16.1233 9.81804 16.0194 9.13782 16.0138 9.08705C15.9686 8.67691 16.0039 9.07322 16.0039 9.10722H11.5212ZM10.4423 8.99066C10.3685 9.36768 10.3131 9.50163 10.2726 9.59337C10.2372 9.67338 10.2018 9.74374 10.1196 9.91088C10.0436 10.0656 9.94847 10.2623 9.84211 10.5105L13.9623 12.2763C14.146 11.8478 14.5792 11.1921 14.8415 9.85138L10.4423 8.99066ZM13.4871 9.80852L13.4423 9.76369L10.2726 12.9334L10.3174 12.9782L13.4871 9.80852ZM14.2809 8.23636C14.2803 8.23718 14.2832 8.23344 14.2912 8.22393C14.2994 8.21425 14.3109 8.20098 14.3282 8.18168C14.3463 8.16137 14.3652 8.14064 14.3924 8.11066C14.4172 8.08341 14.45 8.04724 14.4837 8.00933C14.5932 7.88614 14.8701 7.57548 15.0722 7.15057C15.3106 6.64923 15.4442 5.99769 15.2668 5.27739C15.1074 4.62986 14.7485 4.1445 14.4339 3.80888L11.1636 6.87474C11.1852 6.89773 11.0056 6.72056 10.9142 6.34898C10.8659 6.15277 10.8517 5.93885 10.8796 5.72234C10.9069 5.5112 10.9682 5.34264 11.0241 5.22525C11.1169 5.03007 11.2187 4.93514 11.1328 5.03188C11.1176 5.04895 11.1003 5.06803 11.0744 5.09657C11.0509 5.12238 11.0185 5.15799 10.9856 5.19485C10.9195 5.26883 10.8287 5.3728 10.7339 5.49546L14.2809 8.23636ZM14.4339 3.80888C13.93 3.27139 12.8123 2.35307 11.3113 2.81636C10.6933 3.00709 10.2731 3.37399 10.0271 3.63376C9.77812 3.89671 9.5916 4.17481 9.46761 4.37174L13.261 6.76015C13.3275 6.6545 13.3315 6.66365 13.2822 6.71577C13.2358 6.76472 13.0243 6.97892 12.6333 7.09962C12.1779 7.24019 11.7453 7.17402 11.4426 7.04098C11.1983 6.9336 11.1076 6.81501 11.1636 6.87474L14.4339 3.80888ZM11.8339 3.37438C11.7743 3.36159 11.7741 3.3626 11.5852 3.27774C11.3215 3.15924 10.9279 2.98908 10.3331 2.88654L9.57144 7.304C9.61785 7.312 9.63321 7.31779 9.63444 7.31821C9.64335 7.32125 9.66075 7.3274 9.74816 7.36667C9.94589 7.45551 10.3268 7.63582 10.8947 7.75751L11.8339 3.37438ZM12.1728 4.7905L12.0159 3.64742L7.57486 4.25697L7.73175 5.40004L12.1728 4.7905ZM10.547 1.84064C10.1357 1.69425 9.64384 1.55152 9.12818 1.51616C8.59548 1.47963 7.84829 1.54718 7.15624 2.04151C6.46423 2.5358 6.16258 3.21746 6.02751 3.71679C5.89718 4.19861 5.87306 4.68424 5.87306 5.07285H10.3557C10.3557 4.8339 10.3764 4.80683 10.3547 4.88731C10.3282 4.9853 10.1988 5.37699 9.76172 5.68918C9.32462 6.0014 8.91502 5.99471 8.82148 5.98829C8.74498 5.98305 8.79388 5.9748 9.04379 6.06375L10.547 1.84064ZM7.19754 3.02763L5.89758 3.61038L7.73124 7.70082L9.03121 7.11808L7.19754 3.02763ZM8.31377 3.98964C8.22926 3.91358 8.28951 3.96066 8.05524 3.73262C7.92293 3.60382 7.61432 3.30726 7.17945 3.08713C6.67 2.82926 5.99316 2.67814 5.24358 2.8689C4.57186 3.03985 4.0804 3.42684 3.75029 3.75696L6.91999 6.92666C6.91906 6.9276 6.90858 6.93802 6.88834 6.95474C6.8681 6.97145 6.83567 6.99645 6.79077 7.02528C6.70085 7.08302 6.55261 7.16129 6.34914 7.21307C5.87202 7.33449 5.43752 7.2296 5.155 7.08659C4.94707 6.98134 4.84998 6.86828 4.9285 6.94471C4.96338 6.97867 4.98584 7.00218 5.06062 7.07746C5.121 7.13823 5.21097 7.22789 5.31505 7.32156L8.31377 3.98964ZM3.77276 3.7348C3.44389 4.05453 3.04306 4.52802 2.84005 5.1764C2.60363 5.93148 2.72203 6.6329 2.97445 7.17658C3.17448 7.60743 3.46553 7.93764 3.53415 8.0193C3.66708 8.17748 3.64156 8.15308 3.61494 8.10871L7.45877 5.80241C7.26405 5.47788 7.02841 5.20973 6.96592 5.13538C6.91674 5.07685 6.91381 5.07174 6.9215 5.08224C6.93115 5.09544 6.98447 5.16876 7.04024 5.28889C7.09952 5.41657 7.16556 5.60541 7.18753 5.84304C7.21008 6.08684 7.18012 6.3171 7.1179 6.51582C7.00525 6.87562 6.82295 7.02132 6.89751 6.94882L3.77276 3.7348ZM3.42195 6.21349L2.97368 7.49104L7.2035 8.97518L7.65177 7.69764L3.42195 6.21349ZM4.97939 5.99446C4.89282 5.99868 4.81025 6.0009 4.70594 6.00375C4.61324 6.00628 4.48198 6.00975 4.35196 6.01786C4.14177 6.03097 3.61929 6.06616 3.08529 6.32969C2.40849 6.66371 1.94997 7.23263 1.72433 7.88815C1.54018 8.42311 1.53403 8.94835 1.54921 9.31261L6.028 9.12599C6.02077 8.95234 6.05108 9.09094 5.96289 9.34714C5.91039 9.49967 5.81339 9.70211 5.64027 9.90426C5.46349 10.1107 5.25994 10.2553 5.0691 10.3495C4.75083 10.5065 4.50431 10.4997 4.63102 10.4918C4.66945 10.4894 4.72187 10.4876 4.82818 10.4847C4.92287 10.4821 5.05463 10.4787 5.1978 10.4718L4.97939 5.99446ZM1.54984 9.32591C1.56664 9.67851 1.62234 10.1905 1.86462 10.702C2.1564 11.3179 2.6524 11.795 3.28837 12.0529C3.80033 12.2604 4.28208 12.2708 4.48258 12.2736C4.60361 12.2752 4.72407 12.2727 4.80665 12.2709C4.90051 12.269 4.97064 12.2675 5.04377 12.2675V7.78485C4.91518 7.78485 4.79619 7.78755 4.71337 7.78927C4.61928 7.79123 4.57549 7.7918 4.54453 7.79137C4.44105 7.78994 4.66785 7.77512 4.97249 7.89862C5.15219 7.97147 5.35246 8.08821 5.538 8.26481C5.72198 8.43994 5.84157 8.6264 5.91575 8.78301C6.04457 9.05496 6.03303 9.23077 6.02741 9.11269L1.54984 9.32591ZM2.99119 10.9264L3.55152 12.204L7.65667 10.4035L7.09634 9.12592L2.99119 10.9264ZM3.76419 10.0238C3.78206 9.9981 3.79866 9.98362 3.66106 10.1329C3.58592 10.2145 3.29992 10.5128 3.08716 10.9079C2.82475 11.3952 2.6486 12.0603 2.81756 12.8186C2.96606 13.4851 3.3303 13.9814 3.63185 14.3131L6.94875 11.2977C6.9141 11.2596 7.10466 11.4477 7.19292 11.8438C7.24038 12.0568 7.24841 12.2884 7.20851 12.5207C7.16986 12.7456 7.0953 12.9193 7.03399 13.0331C6.97582 13.1412 6.92353 13.2063 6.91414 13.2179C6.90634 13.2276 6.90993 13.2222 6.95739 13.1707C7.01731 13.1057 7.24683 12.8671 7.44401 12.5837L3.76419 10.0238ZM3.63997 14.3219C3.96321 14.6737 4.45034 15.1022 5.13278 15.3111C5.91487 15.5504 6.62138 15.4048 7.13951 15.1607C7.55523 14.9647 7.88261 14.683 7.96199 14.618C8.12063 14.488 8.08715 14.5225 8.02159 14.5592L5.83136 10.6481C5.48564 10.8417 5.20281 11.0836 5.12121 11.1504C5.05728 11.2028 5.04716 11.21 5.05007 11.2079C5.05578 11.2038 5.12002 11.1569 5.22857 11.1057C5.34337 11.0516 5.52311 10.9853 5.75516 10.9603C5.99563 10.9344 6.23187 10.9596 6.44453 11.0247C6.8363 11.1445 6.99844 11.3517 6.94066 11.2889L3.63997 14.3219ZM6.17264 14.7144L7.42777 15.1627L8.93545 10.9412L7.68032 10.4929L6.17264 14.7144ZM5.94599 13.2116C5.95155 13.2895 5.95499 13.3678 5.95847 13.4629C5.96144 13.5438 5.96555 13.6757 5.97259 13.7943C5.98352 13.9786 6.01142 14.5113 6.27069 15.0509C6.61173 15.7606 7.20937 16.2286 7.88907 16.4451C8.43064 16.6176 8.96245 16.6109 9.32445 16.5892L9.05597 12.1146C8.85764 12.1265 8.99161 12.0918 9.24952 12.1739C9.40627 12.2239 9.6226 12.3209 9.83979 12.5037C10.0625 12.6911 10.2147 12.9087 10.3111 13.1094C10.4001 13.2945 10.4309 13.4428 10.4411 13.4999C10.4511 13.5559 10.4503 13.578 10.4474 13.529C10.4443 13.4764 10.4426 13.4211 10.4382 13.2988C10.4342 13.1906 10.4285 13.0497 10.4173 12.8923L5.94599 13.2116ZM9.3499 16.5875C9.70574 16.5621 10.2141 16.4934 10.7177 16.2401C11.3211 15.9366 11.7718 15.4433 12.0182 14.8354C12.2159 14.3478 12.2352 13.8866 12.2427 13.709C12.259 13.3249 12.2422 13.4864 12.2572 13.2246L7.78183 12.9689C7.77388 13.108 7.77078 13.2322 7.76879 13.3254C7.76651 13.4325 7.76592 13.4759 7.76407 13.5198C7.75896 13.6405 7.75031 13.4315 7.86393 13.1512C7.93189 12.9836 8.04078 12.7926 8.20713 12.6123C8.37272 12.4328 8.55056 12.3124 8.70354 12.2354C8.97048 12.1012 9.14535 12.1081 9.03052 12.1163L9.3499 16.5875ZM10.9332 15.1434L12.1884 14.5831L10.361 10.4898L9.10582 11.0501L10.9332 15.1434ZM9.95635 14.3491C9.94103 14.3379 9.94309 14.338 9.97472 14.3657C10.0262 14.4108 10.0308 14.4165 10.1253 14.5012C10.2333 14.5977 10.5386 14.876 10.9503 15.0819C11.4404 15.3269 12.104 15.4852 12.8528 15.3047C13.5252 15.1426 14.0217 14.7636 14.3583 14.4376L11.2393 11.218C11.2393 11.218 11.2416 11.2157 11.2462 11.2116C11.2509 11.2075 11.2581 11.2013 11.268 11.1934C11.2874 11.1778 11.3193 11.154 11.3637 11.1263C11.4529 11.0709 11.6003 10.9956 11.802 10.947C12.0111 10.8965 12.2355 10.8853 12.4582 10.9181C12.6741 10.95 12.8426 11.0163 12.955 11.0725C13.137 11.1635 13.2266 11.261 13.1146 11.1608C13.0743 11.1247 12.8361 10.9007 12.593 10.7238L9.95635 14.3491ZM14.3565 14.4393C14.9634 13.8527 15.7134 12.7577 15.2972 11.3592C14.9812 10.2974 14.1219 9.71269 13.835 9.51756L11.3143 13.2244C11.3937 13.2783 11.3784 13.2768 11.326 13.2225C11.2749 13.1694 11.1017 12.9769 11.0008 12.6379C10.8853 12.25 10.9211 11.8609 11.0419 11.5554C11.1437 11.2979 11.2696 11.1887 11.241 11.2163L14.3565 14.4393ZM14.7626 11.8572C14.7732 11.8095 14.767 11.8221 14.8628 11.6087C14.9901 11.3254 15.1561 10.9276 15.2561 10.3274L10.8345 9.59046C10.8252 9.64608 10.818 9.66663 10.8171 9.66936C10.8145 9.67715 10.8088 9.69399 10.7739 9.77164C10.6961 9.94486 10.5106 10.3273 10.3867 10.8847L14.7626 11.8572ZM13.3072 12.1849L14.4503 12.0504L13.9265 7.59848L12.7834 7.73296L13.3072 12.1849ZM16.3015 10.5717C16.5171 9.96211 16.6833 9.24671 16.5904 8.50956C16.482 7.65041 16.0327 6.89216 15.294 6.41882C14.6758 6.02274 14.0435 5.95114 13.7289 5.9302C13.5495 5.91826 13.3901 5.91903 13.2831 5.92072C13.1266 5.92319 13.1427 5.92456 13.0901 5.92456V10.4072C13.1721 10.4072 13.3437 10.403 13.3538 10.4028C13.4133 10.4019 13.4318 10.403 13.4313 10.4029C13.4291 10.4028 13.4161 10.4019 13.3945 10.3988C13.3729 10.3957 13.3381 10.3897 13.2932 10.3783C13.2071 10.3564 13.0526 10.3066 12.8755 10.1931C12.6879 10.0729 12.5011 9.89735 12.3582 9.6645C12.2176 9.43546 12.1618 9.22023 12.1429 9.07031C12.1109 8.81645 12.1847 8.76785 12.0753 9.07715L16.3015 10.5717ZM15.1354 7.24905L14.5526 5.94908L10.4622 7.78273L11.0449 9.0827L15.1354 7.24905Z" fill="#53D690"/>
</g>
<path fill-rule="evenodd" clip-rule="evenodd" d="M16.5633 1.57642L17.5943 1.554V4.53496L16.6081 4.51254C16.4064 3.7729 16.4513 2.33846 16.5633 1.57642ZM5.4912 2.31605C6.23084 2.60742 9.36869 2.51777 10.0411 2.13675C9.79454 1.28504 8.13596 1.95744 5.96188 1.8902C6.29808 1.28504 7.28426 1.19539 8.33768 0.971258C9.23421 0.769539 10.198 0.478167 11.2066 0.56782C13.2686 0.724712 13.7168 2.65224 15.9358 2.38328V3.84014C15.353 4.53495 13.5824 4.31082 12.91 3.95221C12.3048 3.63842 11.0273 2.78672 10.7807 2.27122C12.1479 2.36087 12.6186 3.34706 13.2462 2.80914C12.9772 2.20398 10.96 1.39711 10.4445 1.84537C9.34627 2.78673 12.6186 4.49012 12.9324 4.6246C14.0979 5.09528 14.5461 4.66943 15.5547 4.66943C16.384 4.66943 15.8909 4.87115 16.5857 5.05046C17.0116 5.16252 17.684 5.09529 18.1547 5.09529V0.971258C17.5271 0.971258 16.6306 0.814367 16.1823 1.2178C15.7116 1.64366 15.8013 2.18157 14.703 1.71089C12.4617 0.724708 12.9548 -0.776974 7.93424 0.478165C6.70152 0.79195 5.02053 0.859189 5.44638 2.31605H5.4912Z" fill="#53D690"/>
<mask id="mask1_1135_4700" style="mask-type:luminance" maskUnits="userSpaceOnUse" x="5" y="0" width="14" height="6">
<path fill-rule="evenodd" clip-rule="evenodd" d="M16.5633 1.57642L17.5943 1.554V4.53496L16.6081 4.51254C16.4064 3.7729 16.4513 2.33846 16.5633 1.57642ZM5.4912 2.31605C6.23084 2.60742 9.36869 2.51777 10.0411 2.13675C9.79454 1.28504 8.13596 1.95744 5.96188 1.8902C6.29808 1.28504 7.28426 1.19539 8.33768 0.971258C9.23421 0.769539 10.198 0.478167 11.2066 0.56782C13.2686 0.724712 13.7168 2.65224 15.9358 2.38328V3.84014C15.353 4.53495 13.5824 4.31082 12.91 3.95221C12.3048 3.63842 11.0273 2.78672 10.7807 2.27122C12.1479 2.36087 12.6186 3.34706 13.2462 2.80914C12.9772 2.20398 10.96 1.39711 10.4445 1.84537C9.34627 2.78673 12.6186 4.49012 12.9324 4.6246C14.0979 5.09528 14.5461 4.66943 15.5547 4.66943C16.384 4.66943 15.8909 4.87115 16.5857 5.05046C17.0116 5.16252 17.684 5.09529 18.1547 5.09529V0.971258C17.5271 0.971258 16.6306 0.814367 16.1823 1.2178C15.7116 1.64366 15.8013 2.18157 14.703 1.71089C12.4617 0.724708 12.9548 -0.776974 7.93424 0.478165C6.70152 0.79195 5.02053 0.859189 5.44638 2.31605H5.4912Z" fill="white"/>
</mask>
<g mask="url(#mask1_1135_4700)">
<path d="M16.5636 1.57738L16.5149 -0.663419L14.6217 -0.622253L14.3462 1.25128L16.5636 1.57738ZM17.5946 1.55496H19.836V-0.735631L17.5459 -0.685837L17.5946 1.55496ZM17.5946 4.53592L17.5437 6.77666L19.836 6.82877V4.53592H17.5946ZM16.6084 4.5135L14.4461 5.10323L14.886 6.71624L16.5575 6.75424L16.6084 4.5135ZM5.49151 2.31701L6.31301 0.23166L5.91707 0.0756826H5.49151V2.31701ZM10.0414 2.13771L11.1464 4.0877L12.6866 3.21494L12.1943 1.51449L10.0414 2.13771ZM5.96219 1.89116L4.00293 0.802674L2.2168 4.01771L5.89291 4.13141L5.96219 1.89116ZM8.33799 0.972214L8.80443 3.16447L8.81722 3.16174L8.82999 3.15887L8.33799 0.972214ZM11.2069 0.568776L11.0084 2.8013L11.0226 2.80256L11.0368 2.80364L11.2069 0.568776ZM15.9361 2.38424H18.1774V-0.145161L15.6664 0.159205L15.9361 2.38424ZM15.9361 3.8411L17.6533 5.2814L18.1774 4.65659V3.8411H15.9361ZM12.9103 3.95317L13.965 1.97553L13.9535 1.96941L13.942 1.96343L12.9103 3.95317ZM10.781 2.27218L10.9277 0.0356586L7.10711 -0.214871L8.75906 3.23921L10.781 2.27218ZM13.2465 2.8101L14.7051 4.51184L15.9726 3.42537L15.2946 1.89981L13.2465 2.8101ZM10.4448 1.84633L11.9035 3.54807L11.9095 3.54288L11.9155 3.53764L10.4448 1.84633ZM12.9327 4.62556L12.0498 6.68566L12.0715 6.69496L12.0934 6.70381L12.9327 4.62556ZM16.586 5.05142L17.1564 2.88387L17.1461 2.8812L16.586 5.05142ZM18.155 5.09625V7.33757H20.3963V5.09625H18.155ZM18.155 0.972214H20.3963V-1.2691H18.155V0.972214ZM16.1826 1.21876L14.6832 -0.447205L14.6789 -0.443258L16.1826 1.21876ZM14.7033 1.71185L13.8007 3.76336L13.8105 3.7677L13.8204 3.77195L14.7033 1.71185ZM7.93455 0.479121L7.39095 -1.69529L7.38167 -1.69293L7.93455 0.479121ZM5.44669 2.31701L3.29539 2.94585L3.76673 4.55833H5.44669V2.31701ZM16.6123 3.81817L17.6434 3.79575L17.5459 -0.685837L16.5149 -0.663419L16.6123 3.81817ZM15.3533 1.55496V4.53592H19.836V1.55496H15.3533ZM17.6456 2.29518L16.6594 2.27276L16.5575 6.75424L17.5437 6.77666L17.6456 2.29518ZM18.7708 3.92377C18.7715 3.92647 18.7656 3.90444 18.7571 3.85172C18.749 3.80074 18.7405 3.73365 18.733 3.65004C18.7178 3.481 18.7097 3.27718 18.7097 3.05384C18.7097 2.59562 18.7437 2.15754 18.7811 1.90347L14.3462 1.25128C14.2714 1.75926 14.227 2.41942 14.227 3.05384C14.227 3.64555 14.2637 4.43458 14.4461 5.10323L18.7708 3.92377ZM4.67002 4.40235C5.21587 4.61738 5.87081 4.6758 6.27425 4.70208C6.77226 4.73451 7.33126 4.7383 7.87003 4.71945C8.40734 4.70066 8.96903 4.6578 9.46915 4.58604C9.84909 4.53152 10.5666 4.41625 11.1464 4.0877L8.93639 0.187703C9.11202 0.0881821 9.2171 0.072734 9.13353 0.093874C9.08193 0.106925 8.98353 0.127166 8.83249 0.148837C8.53204 0.191946 8.13696 0.22473 7.71331 0.239551C7.29111 0.254321 6.88494 0.249708 6.56557 0.228909C6.4054 0.218478 6.29003 0.205424 6.21805 0.194169C6.12015 0.178862 6.17896 0.178851 6.31301 0.23166L4.67002 4.40235ZM12.1943 1.51449C12.0522 1.02354 11.7756 0.557342 11.35 0.189554C10.9454 -0.160133 10.5089 -0.33243 10.1653 -0.421029C9.54939 -0.579813 8.92084 -0.541792 8.55873 -0.514917C7.60732 -0.444305 6.96587 -0.320195 6.03148 -0.349094L5.89291 4.13141C7.1326 4.16975 8.40747 3.99128 8.89051 3.95543C9.24562 3.92908 9.21382 3.96289 9.04619 3.91968C8.92667 3.88886 8.67718 3.80429 8.41895 3.58112C8.13977 3.33984 7.96894 3.03894 7.88846 2.76092L12.1943 1.51449ZM7.92146 2.97964C7.78109 3.23231 7.60141 3.37077 7.50963 3.42778C7.43404 3.47472 7.41575 3.46843 7.52517 3.4356C7.63087 3.40389 7.7791 3.36927 8.011 3.32269C8.20144 3.28444 8.5317 3.22249 8.80443 3.16447L7.87155 -1.22003C7.53591 -1.14862 6.76993 -1.01784 6.23709 -0.857995C5.68901 -0.693569 4.61655 -0.301849 4.00293 0.802674L7.92146 2.97964ZM8.82999 3.15887C9.95338 2.90611 10.4477 2.75146 11.0084 2.8013L11.4053 -1.66374C9.94885 -1.7932 8.51566 -1.36511 7.84599 -1.21444L8.82999 3.15887ZM11.0368 2.80364C11.3227 2.82539 11.4288 2.89542 12.1995 3.45258C12.9876 4.02235 14.2419 4.84732 16.2058 4.60928L15.6664 0.159205C15.4113 0.190117 15.332 0.185804 14.8258 -0.18017C14.3021 -0.558761 13.153 -1.53094 11.3769 -1.66608L11.0368 2.80364ZM13.6947 2.38424V3.8411H18.1774V2.38424H13.6947ZM14.2188 2.4008C14.3459 2.24922 14.4754 2.15872 14.5629 2.10919C14.6484 2.06085 14.7066 2.04412 14.7176 2.04111C14.7296 2.0378 14.6629 2.05505 14.5091 2.05146C14.3651 2.04809 14.2095 2.02783 14.0761 1.99785C14.0114 1.98332 13.9645 1.96932 13.937 1.95987C13.9054 1.94901 13.919 1.95098 13.965 1.97553L11.8555 5.9308C12.5901 6.32256 13.5725 6.51344 14.4044 6.53288C14.8502 6.54329 15.3775 6.50872 15.9064 6.36322C16.4197 6.22203 17.1128 5.92586 17.6533 5.2814L14.2188 2.4008ZM13.942 1.96343C13.7596 1.86885 13.3906 1.64401 13.0484 1.3896C12.8808 1.265 12.7582 1.16171 12.6843 1.09084C12.6482 1.05625 12.6425 1.04715 12.6556 1.06326C12.6623 1.07149 12.7309 1.1545 12.803 1.30515L8.75906 3.23921C9.00082 3.74471 9.36944 4.12261 9.58095 4.32553C9.83488 4.56915 10.1157 4.79505 10.374 4.98704C10.8834 5.3658 11.4558 5.72371 11.8786 5.94291L13.942 1.96343ZM10.6344 4.5087C10.7741 4.51786 10.8235 4.53996 11.2585 4.76576C11.403 4.84075 11.9078 5.11823 12.5251 5.19135C13.3522 5.28932 14.1132 5.01918 14.7051 4.51184L11.7878 1.10836C11.8924 1.01875 12.0724 0.894409 12.3296 0.81162C12.5945 0.726333 12.8469 0.71549 13.0524 0.739827C13.2388 0.76191 13.3612 0.80994 13.3877 0.820594C13.4113 0.830076 13.4052 0.829473 13.3237 0.787194C13.0247 0.631968 12.1552 0.11615 10.9277 0.0356586L10.6344 4.5087ZM15.2946 1.89981C14.9491 1.12234 14.2932 0.66084 13.9948 0.465598C13.5953 0.204232 13.1447 -0.0112971 12.7111 -0.170615C12.2854 -0.327045 11.7729 -0.467334 11.2476 -0.510934C10.869 -0.542363 9.83004 -0.589259 8.97412 0.155015L11.9155 3.53764C11.5843 3.82567 11.2564 3.91073 11.1145 3.93729C11.0344 3.95229 10.9737 3.95623 10.9387 3.95728C10.9028 3.95835 10.8815 3.95673 10.8768 3.95635C10.8703 3.95581 10.8969 3.95787 10.9571 3.97252C11.0148 3.98655 11.086 4.00791 11.1651 4.03698C11.3338 4.09899 11.4702 4.17063 11.5406 4.21674C11.5754 4.23947 11.5589 4.2331 11.513 4.18874C11.4884 4.16498 11.4441 4.11955 11.3919 4.05087C11.3409 3.98374 11.2664 3.87365 11.1983 3.72039L15.2946 1.89981ZM8.9862 0.144591C8.48899 0.570766 8.0823 1.19534 7.99558 1.9862C7.91524 2.71887 8.14008 3.32368 8.34945 3.71538C8.73856 4.44333 9.37069 4.98668 9.78274 5.30735C10.6728 6.00001 11.7397 6.55277 12.0498 6.68566L13.8156 2.56546C13.8584 2.58382 13.6845 2.50358 13.3805 2.32749C13.0965 2.16299 12.7866 1.96494 12.5358 1.7697C12.4115 1.67301 12.3267 1.59621 12.2758 1.54374C12.2167 1.4828 12.2488 1.50137 12.3028 1.60224C12.3549 1.69976 12.5018 2.016 12.4515 2.47481C12.3948 2.99182 12.1261 3.35723 11.9035 3.54807L8.9862 0.144591ZM12.0934 6.70381C13.0637 7.09565 13.8551 7.13852 14.5787 7.04874C14.8123 7.01975 15.1761 6.9527 15.2403 6.94234C15.3779 6.92017 15.4664 6.91171 15.555 6.91171V2.42907C15.1394 2.42907 14.7936 2.47384 14.527 2.51681C14.4083 2.53595 14.2764 2.55979 14.2057 2.57207C14.1194 2.58708 14.0675 2.59516 14.0267 2.60022C13.9893 2.60486 13.9715 2.60557 13.9649 2.60569C13.9596 2.6058 13.958 2.60562 13.956 2.60538C13.9537 2.60511 13.9407 2.60351 13.9139 2.5964C13.8863 2.58905 13.84 2.57479 13.772 2.54732L12.0934 6.70381ZM15.555 6.91171C15.6177 6.91171 15.6319 6.91379 15.6141 6.91225C15.5994 6.91096 15.5138 6.90323 15.3896 6.87004C15.254 6.83381 15.0687 6.76633 14.8696 6.64116C14.6672 6.51393 14.5341 6.37894 14.474 6.3139C14.3414 6.17018 14.642 6.53262 14.9821 6.76552C15.3365 7.00822 15.7063 7.13913 16.026 7.22164L17.1461 2.8812C17.1184 2.87405 17.2893 2.91251 17.5148 3.06696C17.726 3.2116 17.9678 3.48999 17.7679 3.27343C17.6742 3.17197 17.5054 3.00336 17.2554 2.84619C17.0087 2.69107 16.7638 2.59732 16.547 2.53938C16.1712 2.43896 15.8047 2.42907 15.555 2.42907V6.91171ZM16.0156 7.21894C16.5428 7.35768 17.0797 7.36003 17.3761 7.35707C17.5477 7.35535 17.7173 7.34938 17.8462 7.34506C17.9887 7.34029 18.0812 7.33757 18.155 7.33757V2.85493C17.9934 2.85493 17.8254 2.86061 17.6961 2.86494C17.5532 2.86972 17.4398 2.87356 17.3313 2.87465C17.2235 2.87573 17.1522 2.87355 17.1069 2.87026C17.0554 2.86652 17.0821 2.8643 17.1564 2.88387L16.0156 7.21894ZM20.3963 5.09625V0.972214H15.9136V5.09625H20.3963ZM18.155 -1.2691C18.0659 -1.2691 17.9663 -1.27471 17.75 -1.28485C17.567 -1.29343 17.3059 -1.3046 17.0315 -1.29602C16.5882 -1.28217 15.5382 -1.21665 14.6832 -0.447205L17.682 2.88472C17.4598 3.08467 17.2495 3.15417 17.1716 3.17504C17.0991 3.19444 17.0844 3.18715 17.1715 3.18443C17.2558 3.18179 17.3645 3.18464 17.5401 3.19287C17.615 3.19638 17.7228 3.20186 17.8166 3.2057C17.9157 3.20977 18.0327 3.21354 18.155 3.21354V-1.2691ZM14.6789 -0.443258C14.3681 -0.162052 14.1632 0.129216 14.0952 0.222632C14.0475 0.28822 14.0591 0.270577 14.0819 0.243457C14.1118 0.207952 14.199 0.108202 14.3428 0.00149465C14.4979 -0.113549 14.6925 -0.217433 14.9199 -0.281758C15.1411 -0.344326 15.3316 -0.35201 15.4644 -0.344128C15.5903 -0.336653 15.6671 -0.315107 15.677 -0.312302C15.6881 -0.309141 15.6613 -0.316076 15.5862 -0.348253L13.8204 3.77195C14.1898 3.93025 14.6674 4.09909 15.1988 4.13064C15.8329 4.16828 16.4693 4.00546 17.0138 3.60151C17.428 3.29419 17.6947 2.89466 17.7194 2.86067C17.8013 2.74817 17.7618 2.8125 17.6863 2.88078L14.6789 -0.443258ZM15.606 -0.339669C15.282 -0.482221 15.055 -0.63895 14.7486 -0.868109C14.4734 -1.07397 13.9395 -1.50212 13.2564 -1.79975C11.7482 -2.45693 9.98148 -2.34293 7.39095 -1.69529L8.47815 2.65352C10.9082 2.04602 11.4052 2.28331 11.4659 2.30974C11.5672 2.35391 11.6441 2.40764 12.0637 2.72148C12.4521 3.01203 13.004 3.41282 13.8007 3.76336L15.606 -0.339669ZM7.38167 -1.69293C7.09695 -1.62046 6.92419 -1.59449 6.47242 -1.49252C6.12449 -1.41399 5.62094 -1.29025 5.13706 -1.06913C4.65591 -0.849253 3.95431 -0.425916 3.51136 0.392359C3.03796 1.26688 3.07357 2.18697 3.29539 2.94585L7.59798 1.68817C7.60688 1.71861 7.69292 2.08398 7.45346 2.52634C7.24444 2.91246 6.96029 3.02622 7.00025 3.00795C7.03748 2.99094 7.15869 2.94798 7.45934 2.88013C7.60359 2.84757 7.74105 2.81934 7.92283 2.78065C8.09096 2.74487 8.28812 2.70192 8.48744 2.65118L7.38167 -1.69293ZM5.44669 4.55833H5.49151V0.0756826H5.44669V4.55833Z" fill="#53D690"/>
</g>
<path fill-rule="evenodd" clip-rule="evenodd" d="M0.582743 13.6354L1.50168 13.6803C1.77064 14.4199 1.68099 15.7871 1.59134 16.594L0.537917 16.6164L0.582743 13.6354ZM2.21891 14.1285C3.33957 13.9941 4.30333 13.7027 5.31193 14.263C5.91708 14.5992 7.10498 15.3613 7.35153 15.8992C6.7912 15.8768 6.47741 15.7423 6.02915 15.5182C5.44641 15.2268 5.33434 14.9578 4.88608 15.3613C5.13262 15.944 6.9705 16.7285 7.71014 16.3474C8.33771 15.5406 7.39635 14.9802 6.83602 14.5992C3.60852 12.3803 4.32575 13.7251 2.39821 13.5234C1.5241 13.4337 3.07061 13.0975 0 13.0527V17.1991C0.806875 17.1991 1.59134 17.356 2.0396 16.8854C2.5551 16.3474 2.57752 16.0561 3.51887 16.5043C5.87226 17.6474 5.31193 18.925 10.3325 17.6698C11.4756 17.3784 13.179 17.2664 12.6635 15.8544C11.9238 15.563 9.97387 15.7647 8.94287 15.8319C8.20323 15.8992 8.27047 15.7199 8.13599 16.2802C8.89804 16.7733 11.1169 16.2354 12.1928 16.2802C11.9462 16.7957 11.7445 16.7285 11.0721 16.8854C9.88422 17.1767 8.09116 17.6922 6.94809 17.6026C4.95332 17.4457 4.37057 15.4957 2.21891 15.8095V14.1285Z" fill="#53D690"/>
<mask id="mask2_1135_4700" style="mask-type:luminance" maskUnits="userSpaceOnUse" x="0" y="13" width="13" height="6">
<path fill-rule="evenodd" clip-rule="evenodd" d="M0.582743 13.6354L1.50168 13.6803C1.77064 14.4199 1.68099 15.7871 1.59134 16.594L0.537917 16.6164L0.582743 13.6354ZM2.21891 14.1285C3.33957 13.9941 4.30333 13.7027 5.31193 14.263C5.91708 14.5992 7.10498 15.3613 7.35153 15.8992C6.7912 15.8768 6.47741 15.7423 6.02915 15.5182C5.44641 15.2268 5.33434 14.9578 4.88608 15.3613C5.13262 15.944 6.9705 16.7285 7.71014 16.3474C8.33771 15.5406 7.39635 14.9802 6.83602 14.5992C3.60852 12.3803 4.32575 13.7251 2.39821 13.5234C1.5241 13.4337 3.07061 13.0975 0 13.0527V17.1991C0.806875 17.1991 1.59134 17.356 2.0396 16.8854C2.5551 16.3474 2.57752 16.0561 3.51887 16.5043C5.87226 17.6474 5.31193 18.925 10.3325 17.6698C11.4756 17.3784 13.179 17.2664 12.6635 15.8544C11.9238 15.563 9.97387 15.7647 8.94287 15.8319C8.20323 15.8992 8.27047 15.7199 8.13599 16.2802C8.89804 16.7733 11.1169 16.2354 12.1928 16.2802C11.9462 16.7957 11.7445 16.7285 11.0721 16.8854C9.88422 17.1767 8.09116 17.6922 6.94809 17.6026C4.95332 17.4457 4.37057 15.4957 2.21891 15.8095V14.1285Z" fill="white"/>
</mask>
<g mask="url(#mask2_1135_4700)">
<path d="M0.582852 13.6363L0.692057 11.3977L-1.62336 11.2847L-1.65821 13.6026L0.582852 13.6363ZM1.50179 13.6812L3.60817 12.9152L3.09904 11.5151L1.611 11.4425L1.50179 13.6812ZM1.59145 16.5949L1.63913 18.8357L3.60222 18.7939L3.81906 16.8424L1.59145 16.5949ZM0.538026 16.6173L-1.70304 16.5836L-1.73799 18.9076L0.585713 18.8581L0.538026 16.6173ZM2.21902 14.1294L1.95197 11.9041L-0.0223043 12.141V14.1294H2.21902ZM7.35164 15.9001L7.26206 18.1396L10.9105 18.2855L9.38914 14.9662L7.35164 15.9001ZM4.88619 15.3622L3.38682 13.6962L2.19971 14.7646L2.82201 16.2355L4.88619 15.3622ZM7.71025 16.3483L8.73668 18.3408L9.17602 18.1145L9.47944 17.7244L7.71025 16.3483ZM6.83613 14.6001L5.56635 16.4471L5.57582 16.4535L6.83613 14.6001ZM2.39832 13.5243L2.63161 11.2951L2.627 11.2947L2.39832 13.5243ZM0.000108957 13.0536L0.0328255 10.8125L-2.24121 10.7793V13.0536H0.000108957ZM0.000108957 17.2H-2.24121V19.4414H0.000108957V17.2ZM2.03971 16.8863L0.421495 15.3355L0.416685 15.3405L2.03971 16.8863ZM3.51898 16.5052L4.49822 14.4892L4.49043 14.4854L4.4826 14.4816L3.51898 16.5052ZM10.3326 17.6707L10.8762 19.8451L10.8862 19.8426L10.3326 17.6707ZM12.6636 15.8553L14.769 15.0866L14.4232 14.1395L13.4851 13.7699L12.6636 15.8553ZM8.94298 15.8328L8.79711 13.5963L8.76856 13.5981L8.74006 13.6007L8.94298 15.8328ZM8.1361 16.2811L5.95667 15.758L5.58638 17.3009L6.9185 18.1628L8.1361 16.2811ZM12.1929 16.2811L14.2148 17.2481L15.6807 14.1832L12.2862 14.0417L12.1929 16.2811ZM11.0722 16.8863L10.5629 14.7036L10.5506 14.7064L10.5383 14.7095L11.0722 16.8863ZM2.21902 15.8104H-0.0223043V18.4023L2.54245 18.0283L2.21902 15.8104ZM0.473647 15.875L1.39259 15.9198L1.611 11.4425L0.692057 11.3977L0.473647 15.875ZM-0.604585 14.4471C-0.619359 14.4065 -0.601912 14.4413 -0.584908 14.5899C-0.569303 14.7262 -0.560221 14.9025 -0.560221 15.1128C-0.560221 15.5357 -0.596488 15.9903 -0.636165 16.3474L3.81906 16.8424C3.86903 16.3926 3.92242 15.7602 3.92242 15.1128C3.92242 14.5312 3.88381 13.6732 3.60817 12.9152L-0.604585 14.4471ZM1.54376 14.3541L0.490339 14.3765L0.585713 18.8581L1.63913 18.8357L1.54376 14.3541ZM2.77909 16.651L2.82392 13.67L-1.65821 13.6026L-1.70304 16.5836L2.77909 16.651ZM2.48606 16.3548C2.79682 16.3175 3.13907 16.2637 3.34856 16.2339C3.59377 16.1991 3.75886 16.181 3.89416 16.1758C4.12056 16.167 4.17628 16.1969 4.22356 16.2232L6.40052 12.3047C5.43921 11.7706 4.50874 11.666 3.72094 11.6965C3.11063 11.7201 2.2462 11.8688 1.95197 11.9041L2.48606 16.3548ZM4.22356 16.2232C4.46093 16.3551 4.82244 16.5772 5.12954 16.8054C5.28334 16.9197 5.38754 17.009 5.4455 17.0658C5.47315 17.0929 5.47237 17.0952 5.45473 17.0727C5.44106 17.0553 5.37849 16.9743 5.31413 16.8339L9.38914 14.9662C9.15618 14.4579 8.80349 14.0802 8.58258 13.8638C8.32956 13.6159 8.05273 13.3928 7.8031 13.2073C7.30332 12.836 6.7683 12.509 6.40052 12.3047L4.22356 16.2232ZM7.44122 13.6606C7.38296 13.6582 7.35267 13.6539 7.34123 13.652C7.33151 13.6503 7.32727 13.6492 7.32196 13.6475C7.29925 13.6403 7.24401 13.6206 7.03161 13.5144L5.02691 17.5237C5.59525 17.8079 6.24145 18.0988 7.26206 18.1396L7.44122 13.6606ZM7.03161 13.5144C6.97877 13.4879 6.9396 13.4644 6.82398 13.3948C6.76719 13.3606 6.47555 13.1757 6.12742 13.0576C5.66679 12.9013 5.09082 12.8444 4.47674 13.0447C3.96124 13.2129 3.59529 13.5086 3.38682 13.6962L6.38555 17.0281C6.38212 17.0312 6.33999 17.0693 6.26356 17.1191C6.18544 17.17 6.05186 17.246 5.86717 17.3063C5.67316 17.3696 5.45433 17.405 5.22278 17.398C4.99709 17.3911 4.81367 17.3455 4.68717 17.3025C4.56855 17.2623 4.49071 17.221 4.47443 17.2123C4.46015 17.2047 4.46041 17.2041 4.51172 17.235C4.59501 17.2852 4.78838 17.4045 5.02691 17.5237L7.03161 13.5144ZM2.82201 16.2355C3.14493 16.9988 3.76272 17.4608 4.0617 17.6654C4.44983 17.931 4.88887 18.1491 5.3175 18.3119C5.74446 18.4741 6.24351 18.6127 6.76033 18.6663C7.22199 18.7142 7.9882 18.7264 8.73668 18.3408L6.68382 14.3559C6.8924 14.2484 7.06075 14.2206 7.13237 14.2124C7.20786 14.2038 7.24171 14.2095 7.22293 14.2076C7.20749 14.206 7.16869 14.2004 7.10813 14.185C7.04883 14.1699 6.98088 14.1486 6.90912 14.1214C6.83747 14.0942 6.77015 14.0641 6.71171 14.0343C6.65217 14.0039 6.61274 13.9793 6.59319 13.966C6.5694 13.9497 6.59406 13.9631 6.64513 14.015C6.67222 14.0425 6.71672 14.091 6.76778 14.1617C6.81795 14.2312 6.88752 14.3403 6.95037 14.4889L2.82201 16.2355ZM9.47944 17.7244C9.89019 17.1963 10.1974 16.4954 10.1556 15.6744C10.1157 14.8901 9.77146 14.2991 9.48045 13.929C8.98248 13.2958 8.21957 12.8304 8.09645 12.7467L5.57582 16.4535C5.76747 16.5838 5.84847 16.635 5.94683 16.7093C6.03939 16.7792 6.01607 16.7753 5.95685 16.7C5.89278 16.6185 5.70123 16.3428 5.6788 15.9023C5.65451 15.4253 5.84409 15.097 5.94106 14.9723L9.47944 17.7244ZM8.10591 12.7532C7.26631 12.1759 6.57699 11.7549 5.97836 11.4833C5.34534 11.196 4.68974 11.0181 3.96814 11.0703C3.63935 11.094 3.37155 11.1611 3.20395 11.2072C2.96156 11.2739 3.02209 11.2626 2.91167 11.29C2.88828 11.2958 2.83352 11.3163 2.63161 11.2951L2.16504 15.7534C2.92691 15.8332 3.5053 15.7612 3.99041 15.6409C4.09604 15.6147 4.18822 15.5885 4.25498 15.5692C4.33508 15.546 4.35782 15.539 4.39312 15.5293C4.44317 15.5155 4.3876 15.5343 4.29134 15.5412C4.03482 15.5598 3.92554 15.4743 4.12601 15.5653C4.36087 15.6719 4.7922 15.9148 5.56635 16.4471L8.10591 12.7532ZM2.627 11.2947C2.586 11.2904 2.73948 11.2994 2.96105 11.383C3.23367 11.4858 3.70486 11.7402 4.02703 12.2974C4.16387 12.5341 4.22243 12.7414 4.24575 12.8333C4.2564 12.8753 4.26338 12.9093 4.26153 12.9006C4.2609 12.8976 4.26185 12.9021 4.26105 12.8984C4.26082 12.8973 4.26047 12.8956 4.26008 12.8938C4.25929 12.8901 4.25807 12.8844 4.2566 12.8777C4.25369 12.8644 4.24905 12.8436 4.24297 12.8186C4.17844 12.553 4.01568 12.0726 3.56435 11.645C3.18946 11.2899 2.78357 11.1338 2.54964 11.0603C2.30027 10.982 2.05173 10.939 1.83743 10.911C1.40583 10.8546 0.822988 10.8241 0.0328255 10.8125L-0.0326076 15.2947C0.712534 15.3056 1.08786 15.3338 1.25721 15.3559C1.34339 15.3672 1.30603 15.3683 1.20602 15.3369C1.12145 15.3103 0.803109 15.204 0.481448 14.8992C0.0833546 14.5221 -0.060495 14.0928 -0.112948 13.8769C-0.120735 13.8449 -0.126675 13.816 -0.123294 13.8319C-0.122543 13.8355 -0.112968 13.8815 -0.0992827 13.9355C-0.0699034 14.0513 -0.00355023 14.2819 0.146251 14.541C0.494331 15.1431 1.0121 15.4388 1.37945 15.5773C1.69575 15.6966 1.99211 15.7357 2.16964 15.7539L2.627 11.2947ZM-2.24121 13.0536V17.2H2.24143V13.0536H-2.24121ZM0.000108957 19.4414C0.146495 19.4414 0.28351 19.4483 0.51126 19.4569C0.708069 19.4644 0.98792 19.4737 1.27871 19.4575C1.83881 19.4264 2.85134 19.284 3.66274 18.432L0.416685 15.3405C0.587297 15.1614 0.776819 15.0626 0.91427 15.0151C1.03122 14.9748 1.09027 14.9784 1.03007 14.9818C0.967849 14.9852 0.872279 14.9847 0.68106 14.9775C0.520782 14.9714 0.257161 14.9587 0.000108957 14.9587V19.4414ZM3.65792 18.437C3.75379 18.337 3.83405 18.247 3.89179 18.1817C3.96037 18.1041 3.97758 18.0842 3.99666 18.0637C4.04653 18.0101 3.87313 18.2204 3.53559 18.3716C3.34956 18.4548 3.15217 18.5047 2.95714 18.5207C2.77124 18.536 2.62622 18.5175 2.54134 18.5013C2.40277 18.4747 2.37712 18.444 2.55536 18.5288L4.4826 14.4816C4.04532 14.2734 2.91944 13.736 1.70371 14.2803C1.17846 14.5155 0.84397 14.8715 0.715232 15.0098C0.645013 15.0853 0.568536 15.1729 0.533545 15.2124C0.487715 15.2643 0.454494 15.301 0.421495 15.3355L3.65792 18.437ZM2.53974 18.5213C2.93726 18.7144 3.20871 18.9076 3.54761 19.1554C3.86057 19.3842 4.40095 19.798 5.11 20.075C6.60862 20.6604 8.34769 20.4772 10.8762 19.8451L9.78899 15.4963C7.29694 16.1193 6.8059 15.9249 6.7412 15.8996C6.66859 15.8713 6.594 15.8297 6.19324 15.5367C5.81842 15.2627 5.2774 14.8676 4.49822 14.4892L2.53974 18.5213ZM10.8862 19.8426C11.1911 19.7649 11.281 19.7584 11.7651 19.6444C12.1079 19.5637 12.6068 19.4347 13.0863 19.2056C13.5576 18.9804 14.2686 18.5371 14.6888 17.6828C15.1403 16.7648 15.0394 15.8273 14.769 15.0866L10.5582 16.6239C10.5455 16.5892 10.425 16.1952 10.6663 15.7045C10.7712 15.4912 10.9044 15.349 11.0012 15.2666C11.0484 15.2265 11.0875 15.1999 11.1125 15.1843C11.1375 15.1687 11.1526 15.1615 11.1538 15.1609C11.1552 15.1602 11.1471 15.1641 11.1272 15.1717C11.1075 15.1791 11.0797 15.1888 11.0423 15.2005C10.9651 15.2245 10.8668 15.2507 10.7379 15.281C10.6056 15.3122 10.4729 15.3405 10.3057 15.3769C10.1503 15.4107 9.96415 15.4516 9.77898 15.4988L10.8862 19.8426ZM13.4851 13.7699C12.9736 13.5684 12.4355 13.5088 12.0703 13.4834C11.6616 13.4551 11.233 13.457 10.8417 13.4694C10.085 13.4933 9.23104 13.568 8.79711 13.5963L9.08884 18.0694C9.68591 18.0305 10.3224 17.9707 10.9834 17.9498C11.3009 17.9397 11.5629 17.9416 11.7601 17.9553C12.0007 17.972 11.9837 17.9964 11.8421 17.9406L13.4851 13.7699ZM8.74006 13.6007C8.64702 13.6092 8.58609 13.61 8.49232 13.6113C8.45936 13.6118 8.34505 13.6127 8.22814 13.6216C8.11434 13.6303 7.85133 13.6549 7.54664 13.7657C7.19202 13.8946 6.84536 14.1155 6.5616 14.443C6.30926 14.7342 6.18279 15.0235 6.12207 15.1819C6.02973 15.4228 5.96381 15.7283 5.95667 15.758L10.3155 16.8042C10.3374 16.7129 10.3435 16.6862 10.3507 16.6583C10.3585 16.6275 10.344 16.6916 10.3077 16.7864C10.2712 16.8817 10.1704 17.1234 9.94936 17.3785C9.69685 17.6699 9.38696 17.8663 9.07857 17.9784C8.82011 18.0724 8.61278 18.0879 8.56806 18.0913C8.52022 18.095 8.48838 18.0945 8.55524 18.0935C8.66108 18.0921 8.86911 18.0901 9.14589 18.0649L8.74006 13.6007ZM6.9185 18.1628C7.61188 18.6115 8.378 18.6948 8.80801 18.7202C9.30462 18.7496 9.81592 18.7185 10.2382 18.6823C10.636 18.6482 11.1342 18.5913 11.4312 18.5621C11.8036 18.5256 12.0037 18.5165 12.0996 18.5205L12.2862 14.0417C11.8441 14.0233 11.3635 14.0646 10.9934 14.1009C10.548 14.1446 10.2421 14.1829 9.85541 14.2161C9.49327 14.2471 9.23972 14.2553 9.07234 14.2454C8.83836 14.2316 9.04134 14.1972 9.3537 14.3994L6.9185 18.1628ZM10.1709 15.3141C10.162 15.3327 10.2195 15.2028 10.3701 15.0415C10.4501 14.9557 10.546 14.8722 10.6566 14.7978C10.766 14.7243 10.8675 14.6747 10.9477 14.642C11.0238 14.6111 11.0782 14.5965 11.0914 14.5931C11.1025 14.5902 11.0967 14.5921 11.0505 14.6015C10.9834 14.6151 10.773 14.6545 10.5629 14.7036L11.5815 19.0689C11.7076 19.0395 11.7746 19.0286 11.9422 18.9945C12.0611 18.9704 12.3411 18.9146 12.6368 18.7943C12.9884 18.6513 13.3382 18.431 13.6466 18.1007C13.9253 17.8021 14.1005 17.4872 14.2148 17.2481L10.1709 15.3141ZM10.5383 14.7095C9.87195 14.8729 9.22553 15.0499 8.53628 15.1935C7.82349 15.342 7.35571 15.3872 7.12345 15.369L6.77246 19.8379C7.68328 19.9094 8.68405 19.7416 9.45053 19.582C10.2405 19.4174 11.0846 19.191 11.6061 19.0631L10.5383 14.7095ZM7.12345 15.369C6.86334 15.3485 6.75359 15.2762 5.93346 14.6983C5.14262 14.141 3.84948 13.3076 1.89558 13.5926L2.54245 18.0283C2.74022 17.9994 2.81428 17.9841 3.35143 18.3626C3.85928 18.7205 5.0378 19.7015 6.77246 19.8379L7.12345 15.369ZM4.46034 15.8104V14.1294H-0.0223043V15.8104H4.46034Z" fill="#53D690"/>
</g>
<path fill-rule="evenodd" clip-rule="evenodd" d="M7.53072 9.35398C7.19452 7.22472 10.3324 6.93336 10.5789 8.81606C10.8703 10.9005 7.82209 11.2591 7.53072 9.35398ZM8.49449 7.04542C5.67043 7.98677 7.08246 11.8867 9.68239 11.1022C12.3496 10.2954 11.072 6.19372 8.49449 7.04542Z" fill="#53D690"/>
<mask id="mask3_1135_4700" style="mask-type:luminance" maskUnits="userSpaceOnUse" x="6" y="6" width="6" height="6">
<path fill-rule="evenodd" clip-rule="evenodd" d="M7.53072 9.35398C7.19452 7.22472 10.3324 6.93336 10.5789 8.81606C10.8703 10.9005 7.82209 11.2591 7.53072 9.35398ZM8.49449 7.04542C5.67043 7.98677 7.08246 11.8867 9.68239 11.1022C12.3496 10.2954 11.072 6.19372 8.49449 7.04542Z" fill="white"/>
</mask>
<g mask="url(#mask3_1135_4700)">
<path d="M7.53073 9.35302L9.74632 9.01416L9.74462 9.00345L7.53073 9.35302ZM10.5789 8.8151L8.35658 9.10613L8.35784 9.11576L8.35919 9.12539L10.5789 8.8151ZM8.4945 7.04446L7.79128 4.91631L7.78573 4.91816L8.4945 7.04446ZM9.6824 11.1012L10.3298 13.247L10.3314 13.2465L9.6824 11.1012ZM9.74462 9.00345C9.7456 9.00965 9.75546 9.08541 9.72425 9.20544C9.69252 9.32745 9.63021 9.44851 9.54387 9.55089C9.37886 9.74655 9.20546 9.79146 9.1341 9.80102C9.0657 9.81019 8.92913 9.81065 8.75536 9.70101C8.66044 9.64112 8.56099 9.55059 8.48162 9.42792C8.40078 9.30299 8.36692 9.18505 8.35658 9.10613L12.8013 8.52408C12.4693 5.98942 10.1437 5.14294 8.5385 5.35813C7.69389 5.47135 6.78365 5.87066 6.11715 6.66098C5.41052 7.49886 5.14054 8.58601 5.31684 9.70258L9.74462 9.00345ZM8.35919 9.12539C8.35043 9.0627 8.36284 8.82816 8.55004 8.60521C8.70183 8.42442 8.86467 8.37482 8.94726 8.36267C9.02694 8.35095 9.17749 8.35166 9.36029 8.46611C9.45847 8.52757 9.55511 8.6169 9.63055 8.73173C9.70683 8.84783 9.7369 8.95255 9.74632 9.01416L5.31517 9.69187C5.48647 10.8119 6.1055 11.717 6.98153 12.2655C7.8087 12.7834 8.75772 12.9214 9.59945 12.7976C10.4441 12.6734 11.3325 12.2624 11.983 11.4876C12.6689 10.6707 12.9531 9.60972 12.7987 8.50482L8.35919 9.12539ZM7.78573 4.91816C6.55263 5.32919 5.59672 6.14419 5.08798 7.24673C4.59815 8.30828 4.60837 9.4503 4.92399 10.4162C5.55295 12.341 7.64746 14.0563 10.3298 13.247L9.03497 8.95548C8.98733 8.96985 8.99092 8.96006 9.03277 8.96502C9.07371 8.96987 9.11556 8.98473 9.14874 9.00447C9.17895 9.02244 9.19091 9.03759 9.19173 9.03865C9.19201 9.03902 9.188 9.03331 9.18492 9.02389C9.17554 8.99519 9.19977 9.03475 9.1582 9.12484C9.13638 9.17214 9.10791 9.20472 9.09096 9.21932C9.07538 9.23274 9.09944 9.20537 9.20327 9.17076L7.78573 4.91816ZM10.3314 13.2465C11.602 12.8621 12.5452 12.0161 13.0332 10.9161C13.496 9.87293 13.4872 8.75066 13.2007 7.80253C12.9147 6.85616 12.3011 5.916 11.3367 5.30883C10.3151 4.66567 9.05413 4.49902 7.79128 4.91631L9.19771 9.17261C9.23397 9.16063 9.20748 9.17579 9.13546 9.1674C9.06395 9.15906 8.99754 9.1332 8.94844 9.10228C8.9036 9.07405 8.88794 9.05137 8.88952 9.05357C8.89152 9.05633 8.90151 9.0721 8.90971 9.09925C8.91789 9.12631 8.91881 9.14656 8.91855 9.15333C8.91833 9.15919 8.91804 9.13812 8.93571 9.0983C8.95527 9.0542 8.98839 9.00717 9.02989 8.97098C9.0716 8.93462 9.08631 8.93995 9.0334 8.95595L10.3314 13.2465Z" fill="#53D690"/>
</g>
</g>
<defs>
<clipPath id="clip0_1135_4700">
<rect width="19" height="19" fill="white"/>
</clipPath>
</defs>
</svg>
