<svg width="700" height="207" viewBox="0 0 700 207" fill="none" xmlns="http://www.w3.org/2000/svg">
<path d="M253.893 65.7729C245.287 72.6279 237.684 80.647 229.652 88.1487L227.213 90.3474V87.6313C227.213 79.0949 227.5 70.4292 227.213 61.8927C226.926 57.4952 226.352 53.3564 225.061 49.2175C220.184 33.6968 201.106 26.5831 181.885 32.6621C163.238 38.4823 153.053 50.8989 150.041 68.3597C148.176 79.7416 147.316 90.9941 147.316 102.635C147.029 123.976 147.316 144.929 147.316 166.787H113.893V119.19C113.607 100.177 113.607 81.811 113.033 63.3155C113.033 59.1766 112.459 55.2965 111.168 51.1576C106.291 34.3435 87.2131 26.3244 67.2746 32.9207C44.8975 40.4224 35.4303 56.4605 34.4262 76.6375C33.1352 104.575 33.5656 132.512 32.8483 160.449V166.528H0V5.11274H33.1352V20.6335C49.6311 6.01811 68.4221 -0.319519 89.7951 1.23255C111.311 2.91397 128.381 11.709 138.566 29.9459C142.582 26.0657 145.881 22.1856 149.897 18.8227C173.852 -1.87158 210.861 -5.23441 235.82 11.0624C250.164 20.5041 256.619 33.9554 260.348 49.2175C262.5 55.2965 259.775 61.8927 253.893 65.7729Z" fill="black"/>
<path d="M305.101 37.8461C320.163 23.7481 335.511 10.8141 356.597 5.51114C395.9 -4.18932 431.761 -0.0504323 462.314 25.9468C465.039 28.4043 467.765 31.5084 469.916 34.4832C472.068 37.1993 473.646 40.0448 476.084 43.0196L449.404 57.8937C447.826 56.2123 446.679 54.7895 445.388 53.4961C422.15 24.5241 369.65 22.1959 344.261 45.2184C317.867 69.2755 291.187 92.8153 264.794 116.484C263.216 118.425 262.642 120.623 262.642 123.081C262.355 137.179 262.642 151.277 262.642 165.892H227.929C227.929 151.794 228.79 137.437 227.642 123.339C226.351 110.923 231.085 102.386 240.839 93.9794C262.929 75.7425 283.441 56.6003 304.958 37.5874L305.101 37.8461Z" fill="black"/>
<path d="M700.003 38.2469L694.548 42.0632L694.261 42.3176L683.781 49.9501L677.034 55.1656C675.455 54.0207 674.019 53.0031 672.44 51.6038C652.198 32.0137 627.362 25.0173 598.22 30.36C585.299 32.777 575.25 39.3918 566.063 47.5331C531.752 77.9358 496.723 108.211 462.987 139.123C429.251 170.416 375.272 172.833 341.105 158.204C334.932 155.151 329.19 151.971 323.591 147.9L322.299 147.137L319.859 145.483L319.572 145.229C318.28 144.466 317.418 143.575 316.126 142.812C314.26 141.413 312.681 140.141 311.245 138.741C308.23 136.07 306.077 133.907 305.072 132.763L304.498 132.254C298.612 125.512 294.018 117.625 291.29 109.102C291.003 107.194 291.29 105.031 292.87 103.377C301.77 94.9818 310.671 86.8404 320.433 77.8086C320.72 83.2786 321.725 88.7485 322.586 94.0912C329.621 121.314 355.174 137.851 387.906 137.596C405.133 137.851 421.642 131.872 433.557 120.678C468.873 89.639 504.476 58.9818 539.36 27.943C553.142 15.4767 570.656 6.69934 589.75 2.62868H591.329C593.195 2.37427 597.502 1.86541 603.962 1.48378C610.135 1.22936 616.595 1.22936 622.625 1.48378C631.525 1.99261 640.139 3.13751 648.465 5.04563C651.193 5.55446 653.921 6.4449 657.079 7.20814C658.371 7.46256 659.232 7.71701 660.524 8.35305C661.099 8.60746 662.104 8.86185 662.678 9.11626C663.252 9.37068 664.544 9.62513 665.118 10.2612C665.98 10.5156 667.272 11.0244 668.133 11.6604H668.42C681.628 17.6392 692.682 26.9254 700.003 38.2469Z" fill="black"/>
<path d="M700.002 125.67C686.805 146.106 664.428 160.463 638.322 164.602C633.158 165.766 627.564 166.024 621.396 166.8C588.26 168.223 560.002 160.463 537.338 138.604C528.445 130.068 521.703 119.85 517.973 108.727C517.4 107.046 517.686 105.105 518.547 103.424C527.727 94.6289 536.908 85.9632 547.379 76.3921C547.953 106.787 561.723 127.481 592.994 135.242C624.838 143.261 651.805 134.466 672.461 109.503L699.715 125.541L700.002 125.67Z" fill="#00E900"/>
<path d="M13.457 184.912V206.435H8.53516V184.912H1.54297V180.908H20.4492V184.912H13.457ZM49.3242 206.435V195.322H40.6523V206.435H35.8477V180.908H40.6523V191.162H49.3242V180.908H54.1289V206.435H49.3242ZM71.5781 206.435V180.908H86.9492V184.97H76.4609V191.318H86.4609V195.283H76.4609V202.373H86.9492V206.435H71.5781Z" fill="black"/>
<path d="M147.957 193.349C147.957 195.328 147.71 197.125 147.215 198.74C146.733 200.354 145.971 201.735 144.93 202.88C143.901 204.013 142.579 204.892 140.965 205.517C139.35 206.129 137.417 206.435 135.164 206.435H128.68V180.908H136.238C138.191 180.908 139.897 181.155 141.355 181.65C142.827 182.132 144.051 182.88 145.027 183.896C146.004 184.912 146.733 186.201 147.215 187.763C147.71 189.326 147.957 191.188 147.957 193.349ZM142.801 193.662C142.801 192.281 142.69 191.051 142.469 189.97C142.247 188.889 141.87 187.978 141.336 187.236C140.815 186.481 140.112 185.908 139.227 185.517C138.341 185.126 137.241 184.931 135.926 184.931H133.484V202.412H135.594C137.951 202.412 139.741 201.708 140.965 200.302C142.189 198.896 142.801 196.682 142.801 193.662ZM162.586 206.435V180.908H177.957V184.97H167.469V191.318H177.469V195.283H167.469V202.373H177.957V206.435H162.586ZM205.145 206.435H198.777L190.984 180.908H196.434L200.75 196.279L202.137 201.318L203.582 195.986L207.859 180.908H212.977L205.145 206.435ZM226.57 206.435V180.908H241.941V184.97H231.453V191.318H241.453V195.283H231.453V202.373H241.941V206.435H226.57ZM258.816 206.435V180.908H263.699V202.314H274.48V206.435H258.816ZM308.23 193.564C308.23 195.882 307.957 197.88 307.41 199.56C306.876 201.24 306.134 202.62 305.184 203.701C304.246 204.781 303.139 205.582 301.863 206.103C300.6 206.624 299.246 206.884 297.801 206.884C294.441 206.884 291.915 205.771 290.223 203.544C288.53 201.305 287.684 198.056 287.684 193.798C287.684 191.481 287.951 189.482 288.484 187.802C289.031 186.123 289.773 184.742 290.711 183.662C291.661 182.581 292.768 181.78 294.031 181.259C295.307 180.738 296.668 180.478 298.113 180.478C301.473 180.478 303.999 181.591 305.691 183.818C307.384 186.044 308.23 189.293 308.23 193.564ZM303.152 193.798C303.152 190.778 302.749 188.525 301.941 187.041C301.134 185.556 299.806 184.814 297.957 184.814C297.033 184.814 296.245 185.009 295.594 185.4C294.943 185.778 294.402 186.337 293.973 187.08C293.556 187.822 293.25 188.74 293.055 189.833C292.859 190.914 292.762 192.158 292.762 193.564C292.762 196.585 293.165 198.837 293.973 200.322C294.793 201.806 296.121 202.548 297.957 202.548C298.882 202.548 299.669 202.36 300.32 201.982C300.984 201.591 301.525 201.025 301.941 200.283C302.358 199.541 302.664 198.629 302.859 197.548C303.055 196.455 303.152 195.205 303.152 193.798ZM339.305 189.033C339.305 190.361 339.083 191.591 338.641 192.724C338.198 193.844 337.54 194.814 336.668 195.634C335.796 196.455 334.708 197.093 333.406 197.548C332.104 198.004 330.594 198.232 328.875 198.232H326.434V206.435H321.59V180.908H329.07C330.724 180.908 332.182 181.09 333.445 181.455C334.721 181.806 335.789 182.327 336.648 183.017C337.521 183.707 338.178 184.56 338.621 185.576C339.077 186.578 339.305 187.731 339.305 189.033ZM334.266 189.365C334.266 188.688 334.155 188.076 333.934 187.529C333.725 186.969 333.4 186.494 332.957 186.103C332.527 185.712 331.98 185.413 331.316 185.205C330.652 184.996 329.865 184.892 328.953 184.892H326.434V194.248H329.109C329.943 194.248 330.678 194.137 331.316 193.916C331.954 193.681 332.488 193.349 332.918 192.919C333.361 192.49 333.693 191.975 333.914 191.376C334.148 190.778 334.266 190.107 334.266 189.365ZM354.539 206.435V180.908H369.91V184.97H359.422V191.318H369.422V195.283H359.422V202.373H369.91V206.435H354.539ZM398.328 206.435L394.734 198.232C394.396 197.451 393.921 196.865 393.309 196.474C392.71 196.07 392 195.869 391.18 195.869H390.262V206.435H385.457V180.908H392.898C394.305 180.908 395.581 181.031 396.727 181.279C397.872 181.513 398.849 181.91 399.656 182.47C400.464 183.03 401.082 183.759 401.512 184.658C401.954 185.556 402.176 186.656 402.176 187.958C402.176 188.896 402.039 189.729 401.766 190.458C401.492 191.188 401.108 191.819 400.613 192.353C400.118 192.874 399.526 193.297 398.836 193.623C398.159 193.948 397.417 194.176 396.609 194.306C397.234 194.436 397.807 194.794 398.328 195.38C398.849 195.953 399.37 196.787 399.891 197.88L403.973 206.435H398.328ZM397.137 188.427C397.137 187.177 396.74 186.279 395.945 185.732C395.151 185.185 393.96 184.912 392.371 184.912H390.262V192.119H392.215C392.957 192.119 393.628 192.041 394.227 191.884C394.839 191.728 395.359 191.494 395.789 191.181C396.219 190.869 396.551 190.485 396.785 190.029C397.02 189.56 397.137 189.026 397.137 188.427ZM434.852 198.72C434.852 200.113 434.591 201.324 434.07 202.353C433.562 203.382 432.846 204.235 431.922 204.912C430.997 205.576 429.897 206.07 428.621 206.396C427.345 206.722 425.952 206.884 424.441 206.884C423.1 206.884 421.805 206.806 420.555 206.65C419.305 206.494 418.068 206.233 416.844 205.869V201.123C417.443 201.331 418.068 201.526 418.719 201.708C419.37 201.891 420.021 202.054 420.672 202.197C421.336 202.327 421.993 202.431 422.645 202.509C423.296 202.587 423.927 202.626 424.539 202.626C425.451 202.626 426.225 202.548 426.863 202.392C427.501 202.236 428.022 202.021 428.426 201.748C428.829 201.474 429.122 201.149 429.305 200.771C429.487 200.393 429.578 199.977 429.578 199.521C429.578 198.896 429.396 198.375 429.031 197.958C428.68 197.529 428.211 197.151 427.625 196.826C427.039 196.5 426.368 196.207 425.613 195.947C424.871 195.686 424.109 195.406 423.328 195.107C422.56 194.807 421.798 194.469 421.043 194.091C420.301 193.714 419.637 193.245 419.051 192.685C418.465 192.125 417.99 191.461 417.625 190.693C417.273 189.912 417.098 188.974 417.098 187.88C417.098 186.878 417.28 185.927 417.645 185.029C418.009 184.13 418.582 183.349 419.363 182.685C420.145 182.008 421.147 181.474 422.371 181.083C423.595 180.68 425.073 180.478 426.805 180.478C427.312 180.478 427.84 180.504 428.387 180.556C428.947 180.595 429.493 180.654 430.027 180.732C430.574 180.797 431.095 180.882 431.59 180.986C432.098 181.077 432.56 181.175 432.977 181.279V185.673C432.56 185.517 432.104 185.374 431.609 185.244C431.115 185.113 430.6 185.003 430.066 184.912C429.546 184.807 429.018 184.729 428.484 184.677C427.951 184.625 427.443 184.599 426.961 184.599C426.115 184.599 425.398 184.671 424.812 184.814C424.227 184.944 423.745 185.133 423.367 185.38C422.99 185.615 422.716 185.908 422.547 186.259C422.378 186.611 422.293 187.001 422.293 187.431C422.293 187.965 422.469 188.427 422.82 188.818C423.185 189.195 423.66 189.541 424.246 189.853C424.845 190.153 425.516 190.439 426.258 190.712C427.013 190.973 427.781 191.259 428.562 191.572C429.357 191.871 430.125 192.216 430.867 192.607C431.622 192.998 432.293 193.473 432.879 194.033C433.478 194.593 433.953 195.257 434.305 196.025C434.669 196.78 434.852 197.679 434.852 198.72Z" fill="black"/>
<path d="M485.113 195.634V191.669H494.195V205.283C493.023 205.83 491.799 206.233 490.523 206.494C489.247 206.754 487.861 206.884 486.363 206.884C484.592 206.884 482.997 206.611 481.578 206.064C480.172 205.517 478.974 204.703 477.984 203.623C476.995 202.542 476.233 201.201 475.699 199.599C475.178 197.998 474.918 196.142 474.918 194.033C474.918 191.91 475.191 190.009 475.738 188.33C476.298 186.65 477.105 185.231 478.16 184.072C479.228 182.9 480.53 182.008 482.066 181.396C483.616 180.784 485.38 180.478 487.359 180.478C488.531 180.478 489.671 180.582 490.777 180.791C491.897 180.986 493.01 181.253 494.117 181.591V186.337C493.154 185.882 492.086 185.511 490.914 185.224C489.755 184.925 488.583 184.775 487.398 184.775C486.201 184.775 485.139 184.983 484.215 185.4C483.303 185.817 482.535 186.409 481.91 187.177C481.298 187.945 480.829 188.889 480.504 190.009C480.191 191.129 480.035 192.392 480.035 193.798C480.035 195.153 480.159 196.376 480.406 197.47C480.654 198.551 481.051 199.475 481.598 200.244C482.158 200.999 482.874 201.578 483.746 201.982C484.618 202.386 485.68 202.587 486.93 202.587C487.229 202.587 487.49 202.581 487.711 202.568C487.932 202.542 488.141 202.509 488.336 202.47C488.531 202.431 488.714 202.386 488.883 202.333C489.065 202.281 489.254 202.223 489.449 202.158V195.634H485.113ZM524.594 206.435L523.188 201.396H514.281L512.836 206.435H508.07L515.629 180.908H522.348L529.906 206.435H524.594ZM518.793 185.595L515.434 197.47H522.113L518.793 185.595ZM555.441 184.912V206.435H550.52V184.912H543.527V180.908H562.434V184.912H555.441ZM579.57 206.435V180.908H594.941V184.97H584.453V191.318H594.453V195.283H584.453V202.373H594.941V206.435H579.57ZM629.891 206.435H624.246L621.727 198.564L620.809 195.361L619.93 198.642L617.449 206.435H612.039L610.613 180.908H614.852L615.457 197.275L615.613 201.748L616.766 197.763L619.578 188.681H622.605L625.574 198.31L626.531 201.708L626.609 197.724L627.254 180.908H631.336L629.891 206.435ZM660.562 206.435L659.156 201.396H650.25L648.805 206.435H644.039L651.598 180.908H658.316L665.875 206.435H660.562ZM654.762 185.595L651.402 197.47H658.082L654.762 185.595ZM691.332 197.392V206.435H686.449V197.431L678.148 180.908H683.48L687.23 188.798L688.949 192.666L690.668 188.681L694.594 180.908H699.711L691.332 197.392Z" fill="black"/>
</svg>
